<?xml version="1.0" encoding="utf-8"?>
<!DOCTYPE svg PUBLIC "-//W3C//DTD SVG 1.0//EN" "http://www.w3.org/TR/2001/REC-SVG-20010904/DTD/svg10.dtd">
<svg version="1.0" xmlns="http://www.w3.org/2000/svg" width="1376px" height="768px" viewBox="0 0 1376 768" preserveAspectRatio="xMidYMid meet">
 <g fill="#000000">
  <path d="M629.1 354.4 c-10.2 -2.5 -24.6 -4.4 -34 -4.4 l-5.9 0 -1.6 -4 c-2.3 -5.8 -3.1 -16.5 -1.6 -23.5 1.9 -9.4 2.7 -10.5 7.2 -10.5 2.9 0 3.8 0.4 3.8 1.8 0 3 3.8 8.1 6.5 8.8 2.1 0.5 3.3 0 5.6 -2.2 1.6 -1.5 2.9 -3.5 2.9 -4.4 0 -2.6 -4.6 -7 -8 -7.6 -2.6 -0.6 -3 -1.1 -3 -4.1 0 -3.1 0.4 -3.6 4.8 -5.6 6.7 -3.1 22.5 -3.1 29.4 0 6.9 3.2 13.1 9.4 16.3 16.4 2.5 5.7 2.7 6.8 2.3 17.3 -0.3 9.1 -0.8 11.9 -2.7 15.6 -5.1 9.9 -6.5 10.3 -22 6.4z"/>
  <path d="M731.7 351.8 c-4.3 -6.7 -6 -13.8 -5.5 -23.2 0.3 -4.5 1.3 -10 2.3 -12.3 1.6 -4 2 -4.3 5.6 -4.3 3.5 0 3.9 0.2 3.9 2.6 0 2.9 4.9 8.4 7.6 8.4 2.3 0 7.4 -4.9 7.4 -7 0 -2.8 -4.5 -6.8 -8.4 -7.5 -3.3 -0.7 -3.6 -1 -3.6 -4.2 0 -3.1 0.4 -3.6 4.8 -5.6 6.8 -3.1 23.6 -3.1 30.3 0 6.4 2.9 12.6 8.7 15.6 14.7 4.1 8 4.5 28.2 0.7 32.1 -1.1 1 -3.6 1.5 -7.8 1.5 -8.4 0 -21.8 2.4 -34 6 -13.8 4.1 -15.5 4 -18.9 -1.2z"/>
 </g>
 <g fill="#173c70">
  <path d="M636.3 692.9 c-1.8 -1.2 -3.3 -2.5 -3.3 -3 0 -1.6 -3.1 -1 -5.7 1.1 -1.6 1.3 -4.1 2 -6.7 2 -3.8 0 -5 -0.5 -10.3 -3.7 -1.6 -1 -2.7 -0.9 -5.6 0.7 -6.2 3.4 -11.9 2.2 -17.1 -3.5 -3.2 -3.5 -6.5 -14.6 -6.6 -22.1 0 -3.9 -0.1 -4 -5.2 -5.9 -6.5 -2.2 -18.8 -8.2 -24.5 -11.8 -2.4 -1.5 -4.7 -2.7 -5.3 -2.7 -0.5 0 -1 -0.4 -1 -0.9 0 -0.5 -0.9 -1.3 -2 -1.6 -3.5 -1.1 -20.5 -18.7 -25.2 -26 -7.3 -11.4 -13.1 -23.4 -15.7 -32.5 -0.7 -2.5 -1.7 -5.6 -2.1 -7 -0.5 -1.4 -1.3 -5.4 -2 -9 -0.6 -3.6 -1.5 -8.5 -2 -11 -1.9 -9.8 -3.3 -31.8 -2.6 -42.6 0.6 -10.9 0.5 -11.3 -1.6 -12.8 -1.2 -0.9 -2.8 -1.6 -3.6 -1.6 -1.4 0 -10.7 -4.5 -16.2 -7.8 -1.9 -1.2 -4.2 -2.5 -5 -2.9 -4.7 -2.1 -17.9 -13 -27.1 -22.3 -37.3 -37.5 -49.4 -86.2 -31.7 -126.2 2.7 -6.2 8.8 -16.8 11.5 -20.3 0.5 -0.5 3.1 -3.9 5.8 -7.4 5.5 -7 14.5 -16 26.1 -26 2.7 -2.4 18.2 -13.1 18.8 -13.1 0.2 0 3 -1.8 6.2 -3.9 7.4 -4.9 26.5 -14.5 32.2 -16.2 4.7 -1.4 4.5 -1 6.2 -12.9 1 -7.1 3.7 -19.5 6.2 -28.5 3.1 -10.9 9.6 -18.8 16.4 -20.1 6.5 -1.2 17.1 1.2 29.2 6.7 3.4 1.6 6.4 2.9 6.7 2.9 0.3 0 4.2 1.8 8.6 4 l8.1 4 8.2 -3.9 c13.9 -6.6 21 -9.5 29.1 -11.7 26.5 -7.1 31.2 -7.9 52.9 -9.4 22.3 -1.5 50.4 1.4 67.6 7 1.4 0.5 5.2 1.6 8.5 2.5 3.3 1 7.4 2.3 9 3 1.7 0.8 6.2 2.6 10 4.2 3.9 1.5 9.4 4 12.2 5.5 l5.2 2.8 11.6 -5.5 c6.3 -3 11.8 -5.5 12.1 -5.5 0.3 0 2 -0.6 3.7 -1.4 1.8 -0.7 5.2 -1.9 7.7 -2.6 2.5 -0.7 5.8 -1.6 7.4 -2.1 4.7 -1.4 10.4 -1 14.4 1 5.3 2.8 6.9 5 11.5 16.2 1.3 3.3 5.7 22 7.7 33.4 2.3 12.7 3.3 29.9 2.5 43.2 -1.2 19.3 -1 31.1 0.4 36.3 4.4 16.2 8 44.3 8.2 64 0.1 17.6 0.9 22.3 3.7 23.5 5.3 2.3 1.5 4.5 -7.9 4.5 l-5.6 0 -0.6 -24.2 c-0.6 -26.8 -2.5 -42.3 -7.8 -63.8 l-3 -12.5 1.7 -16.4 c1.5 -14.1 1.6 -18.3 0.6 -30.6 -2.2 -26.6 -9.3 -57 -14.5 -62.7 -2.2 -2.3 -2.8 -2.5 -7.4 -1.8 -2.8 0.5 -6.4 1.5 -8 2.3 -1.5 0.8 -4.4 1.8 -6.3 2.2 -1.9 0.3 -8.8 3.3 -15.3 6.6 -15.1 7.6 -16.8 7.6 -30.8 0.9 -19.5 -9.2 -39.2 -15.3 -60.1 -18.5 -16 -2.4 -55.2 -1.5 -58.1 1.4 -0.6 0.6 -3 1.1 -5.3 1.1 -7 0 -34.6 7.9 -40 11.5 -1.3 0.8 -2.9 1.5 -3.6 1.5 -0.7 0 -4.9 1.8 -9.3 4 -11.4 5.7 -14.1 5.5 -28.8 -1.9 -6.4 -3.3 -16.1 -7.4 -21.4 -9.1 -14.2 -4.6 -16 -3.6 -21.4 12.7 -1.6 4.9 -3.9 14 -5 20.2 l-2.1 11.5 2.6 1.9 c3.4 2.4 5 8.6 4.2 15.9 -0.6 4.6 -0.3 6.3 1.1 8.5 1.4 2 1.8 4.7 1.8 10.8 0 8.2 -1.1 12.1 -5 18.5 -1.7 2.8 -2 4.1 -1.3 6 0.5 1.4 0.8 6.6 0.6 11.5 -0.5 9.5 -1.8 13.2 -8.1 22.4 -2.5 3.7 -3.2 6 -4.3 15 -0.7 5.8 -1.6 16.5 -2 23.6 l-0.6 13 3.6 3.3 c3.5 3.1 3.7 3.7 3.4 8.5 l-0.3 5.2 -5.8 0.3 c-5.5 0.3 -6.1 0.1 -11 -3.8 -7 -5.6 -14 -14.1 -17.9 -21.7 -1.8 -3.5 -3.7 -6.3 -4.2 -6.3 -0.4 0 -3.7 2 -7.3 4.5 -5.8 4.1 -6.9 4.5 -12.2 4.5 -6.6 0 -7.1 -0.5 -7.1 -7 0 -4.4 -0.4 -3.9 13.2 -12.8 22.7 -14.8 46.8 -41 46.8 -50.9 0 -1.3 -0.6 -2.3 -1.3 -2.3 -1.8 0 -14.1 7.5 -20.1 12.2 -3.9 3.1 -5.7 3.8 -9.2 3.8 -5.1 0 -7.4 -1.9 -7.4 -6.3 0 -3.4 2.4 -7.7 4.2 -7.7 0.6 0 3.2 -2 5.8 -4.4 5.2 -4.9 14.7 -10.1 20.3 -11.1 3 -0.6 4.2 -1.7 7.6 -6.9 4.4 -6.8 6.6 -11.6 5.1 -11.6 -2.9 0 -18.2 8.9 -28.6 16.7 -5.9 4.4 -7.9 5.3 -11.2 5.3 -5.1 0 -7.2 -2 -7.2 -6.9 0 -3.4 0.6 -4.4 5.2 -8.3 8.6 -7.3 14.7 -11.3 24.5 -16.2 6.9 -3.4 9.9 -5.5 11.8 -8.3 1.4 -2.1 2.5 -4.1 2.5 -4.6 0 -0.8 -4.9 0.1 -6.5 1.3 -0.5 0.4 -2.1 1 -3.4 1.3 -4.4 1.1 -30.7 16.8 -41.6 24.9 -34 25.2 -54.6 58.2 -54.6 87.3 0 25.6 15.3 58.6 37.6 81 15 15 28.5 24.2 47 31.6 l9 3.6 0.1 23.4 c0 19.4 0.4 25.6 2.3 36.4 6.4 37.5 22.4 65 47.8 81.7 7.4 5 17.5 10.3 23.4 12.4 3.4 1.1 3.9 1.1 4.3 -0.4 0.3 -0.9 2.3 -3 4.3 -4.7 3.3 -2.6 4.8 -3 10.9 -3.3 3.9 -0.2 8 0 9 0.6 1.4 0.7 2.5 0.6 3.9 -0.4 1.3 -1 4.7 -1.4 11.1 -1.4 7.9 0 9.5 0.3 11.9 2.2 2.5 1.9 3.8 2.2 11.2 1.9 7.6 -0.2 8.8 0 12.2 2.2 4.2 2.8 6.8 7.5 7.9 14 l0.7 4.2 8.5 0.7 c11.3 0.8 38.2 0.9 44.7 0.2 5.1 -0.7 5.1 -0.7 5.7 -4.8 0.9 -5.6 4.4 -11.6 8.6 -14.4 3.1 -2.1 4.5 -2.3 12.2 -2.1 7.5 0.3 9 0 10.9 -1.6 2.9 -2.7 19.6 -3.5 23 -1.2 1.6 1.1 2.8 1.3 4.6 0.6 3.1 -1.2 12.5 -1.2 15.6 0 1.3 0.5 3.8 2.3 5.5 4 l3.1 3.2 7 -3.5 c18.5 -9.3 31.6 -20.5 41.4 -35.3 3.7 -5.6 5.3 -7.2 7.8 -7.7 4.5 -0.9 11.7 -0.7 10.2 0.2 -0.7 0.4 -2.3 2.8 -3.5 5.2 -7.7 15 -22.4 30.6 -37.4 39.7 -9.7 5.7 -18.6 10.3 -23.1 11.7 -2.1 0.7 -2.3 1.4 -2.3 6.8 0 8.7 -2.8 18.1 -6.7 22.4 -5.2 5.7 -10.4 6.7 -17 3.2 l-4.2 -2.2 -2.5 2.3 c-3.7 3.5 -10.2 3.9 -15.9 1.1 l-4.6 -2.3 -3.9 3.2 c-5.8 4.5 -10.5 4.3 -16.3 -0.8 -4.9 -4.2 -6.1 -6.3 -8 -13.2 l-1.3 -4.6 -33 0.1 c-32.3 0.1 -33.1 0.1 -33.4 2.1 -0.2 1.1 -1.2 4.4 -2.4 7.3 -4.1 10.5 -13.8 15 -21.5 10.1z m11.6 -14.2 c2.9 -5.8 3.3 -13.7 0.8 -18.4 -3.2 -6.1 -8.4 -2.9 -10.6 6.5 -1 3.9 -0.9 5.5 0.4 9.2 1.7 4.9 4.3 8.2 5.9 7.7 0.6 -0.2 2.1 -2.5 3.5 -5z m99.4 2.1 c5.3 -7.1 2.6 -22.6 -4.1 -23.6 -2.7 -0.4 -5 3.1 -5.8 9.1 -0.7 4.8 0.3 8.4 3.9 14.5 2.2 3.7 3.2 3.7 6 0z m-125.3 0.2 c0.6 -1.1 1.2 -6.4 1.5 -11.7 0.2 -5.4 0.5 -10.9 0.7 -12.2 0.5 -3.8 -2.3 -4.8 -6 -2.1 -6.1 4.5 -7 16.2 -1.9 23.9 3.1 4.6 4.2 5 5.7 2.1z m151.5 -7.1 c1.5 -4.4 1.6 -5.9 0.5 -10.8 -0.6 -3.1 -2.2 -6.9 -3.5 -8.5 -2.3 -2.9 -2.4 -2.9 -5 -1.2 -2.3 1.5 -2.6 2.3 -2.1 4.8 0.3 1.7 0.6 7 0.6 11.9 0 7.8 0.3 9.2 2.2 11.1 l2.1 2.1 1.8 -2.2 c1 -1.2 2.5 -4.4 3.4 -7.2z m-174.8 -1.6 c-0.1 -4.9 0 -10.8 0.3 -13.3 0.4 -3.5 0.1 -4.5 -1.1 -4.8 -3.8 -0.7 -7.5 9.8 -5.8 16.3 1.2 4.5 4.6 10.5 6 10.5 0.5 0 0.8 -3.9 0.6 -8.7z m195 3.7 c1.5 -2.7 2.3 -6 2.3 -8.9 0 -5.8 -3.3 -13.4 -5.6 -12.9 -1.5 0.3 -1.7 2 -1.6 13.1 0.1 15.3 -0.1 14 1.4 13.5 0.7 -0.3 2.2 -2.4 3.5 -4.8z m-290.3 -296.7 c0.3 -6.5 0.9 -14.6 1.2 -18 0.4 -3.9 0.3 -6.3 -0.3 -6.3 -0.6 0 -2.7 1.6 -4.8 3.5 -2 2 -5.2 4.7 -7.1 6.1 -2.1 1.6 -3.4 3.5 -3.4 4.9 0 2.4 7.1 16.8 9.7 19.7 3.3 3.7 4 2.2 4.7 -9.9z"/>
  <path d="M777.7 587 c-5.9 -3.3 -7.7 -7.1 -7.7 -16.6 0 -9.4 2 -13.6 8 -16.7 4.9 -2.5 18.3 -2.1 22.2 0.8 8.7 6.3 9.1 24.5 0.7 32.1 -3.2 2.9 -18.1 3.1 -23.2 0.4z"/>
  <path d="M736.1 555.9 c-1.7 -1.8 -2.1 -3.6 -2.1 -8.4 0 -7.1 1.7 -9.9 10.4 -17.2 4.8 -4.1 5.3 -4.3 11.8 -4.3 l6.8 0 0 3.5 c0 2.7 -1.8 5.9 -8.9 15.7 -8.2 11.4 -9.1 12.3 -12.4 12.6 -2.6 0.2 -4.1 -0.3 -5.6 -1.9z"/>
  <path d="M921.3 556.7 c-0.4 -0.8 -3 -1.9 -5.7 -2.6 -10.3 -2.5 -19.6 -9.4 -21.2 -15.6 -0.3 -1.4 -0.4 -5.6 -0.2 -9.4 0.3 -6.6 0.2 -7 -2.3 -8.5 -7.6 -4.5 -9.3 -20.6 -3.3 -30.3 2.2 -3.4 2.8 -5.5 2.3 -6.8 -1.3 -3.3 -1 -15.4 0.5 -18.8 2.8 -6.7 13.4 -13.7 20.8 -13.7 1.3 0 2.9 -0.5 3.6 -1.2 0.6 -0.6 5.5 -1.4 10.9 -1.7 l9.8 -0.6 -6.7 -4.2 c-3.7 -2.4 -7.7 -4.3 -8.9 -4.3 -1.2 0 -2.8 -0.8 -3.5 -1.7 -1.6 -2.1 -1.9 -12.9 -0.4 -13.8 0.6 -0.3 1 -0.2 1 0.2 0 0.5 4.2 3.1 9.3 5.8 20 10.5 34.9 24.1 41.7 38.2 11.6 23.8 8.4 57.7 -7 72.9 -6.7 6.7 -14.2 10.1 -24.5 11.2 -4.9 0.6 -6 1.1 -6.4 2.7 -0.2 1.1 -0.8 2.3 -1.5 2.7 -1.9 1.3 -7.5 0.9 -8.3 -0.5z m20.5 -16.2 c6.3 -1.9 15.3 -9.8 18.7 -16.5 11 -21.6 6.2 -47.1 -12.5 -66.3 l-7.9 -8.2 -0.1 5.2 c0 6.4 -0.7 6.8 -11.6 7.6 -4.4 0.3 -8.9 0.9 -10 1.5 -1 0.6 -3.4 1.6 -5.2 2.2 -1.7 0.7 -4.6 2.8 -6.3 4.7 -2.6 3.1 -2.9 3.7 -1.7 5.5 1.2 1.7 2.6 1.9 15.8 2.1 18.3 0.3 19.2 0.7 18.8 8.5 l-0.3 5.7 -13.5 0 c-12.7 0 -13.8 0.2 -18.5 2.7 -2.8 1.4 -5.8 4 -6.8 5.7 -1.7 2.9 -1.7 3.4 -0.4 5.5 3.1 4.6 8.1 6 22.7 6.4 8.7 0.3 13.8 0.8 14.2 1.6 1.2 1.8 0.9 7.1 -0.6 9.1 -1.5 2.1 -8.3 3.3 -18.6 3.4 -6.8 0.1 -9 1.2 -9 4.2 0 2.5 5.6 6.4 12 8.4 3 0.9 6 1.8 6.5 2 2.6 0.9 9.6 0.4 14.3 -1z"/>
  <path d="M817.2 539.8 c-7.1 -6.8 -9.8 -10 -10 -12.1 -0.5 -4.6 1.2 -5.7 8.8 -5.7 6.3 0 7.2 0.3 12.9 4.1 7.8 5.2 9.1 7.1 9.1 13.4 0 6.9 -1.9 9.5 -7.1 9.5 -3.7 0 -4.8 -0.7 -13.7 -9.2z"/>
  <path d="M711.9 535.1 c-2.6 -2.6 -2.9 -3.6 -2.9 -9.3 l0 -6.3 8.8 -8.5 c11.9 -11.5 19.3 -16 26.5 -16 5.1 0 5.8 0.3 10.6 4.6 4.2 3.7 5.1 5.2 5.1 7.9 0 2.7 -0.8 3.9 -4.7 7.1 -4.5 3.7 -6.1 4.8 -12.6 8.1 -1.6 0.9 -6 4.6 -9.7 8.4 -6.9 6.9 -6.9 6.9 -12.5 6.9 -4.9 0 -6 -0.4 -8.6 -2.9z"/>
  <path d="M836.9 521.9 c-7.6 -5.7 -16.8 -10.7 -24.7 -13.5 -6.6 -2.3 -6.7 -2.4 -7 -6.1 -0.2 -3.3 0.3 -4.5 4.1 -8.7 4.3 -4.9 4.5 -5 10.9 -5.4 6.1 -0.4 7.2 -0.1 14.6 3.6 9.9 4.9 19.3 11.3 22.2 14.9 1.9 2.4 2.1 3.8 1.8 9 -0.5 8.6 -2.2 10.3 -10.3 10.3 -5.6 0 -6.6 -0.3 -11.6 -4.1z"/>
  <path d="M686.6 514.9 c-2.4 -1.9 -2.6 -2.7 -2.6 -9 l0 -7 9.9 -9.8 c13.5 -13.3 19.3 -17.1 26.3 -17.1 5.1 0 5.6 0.3 10.1 4.8 6.4 6.5 6.5 9.9 0.4 14.4 -2.4 1.8 -7.8 5.9 -11.9 9 -4.2 3.2 -9.8 8.2 -12.5 11.3 l-4.8 5.5 -6.1 0 c-4.7 0 -6.7 -0.5 -8.8 -2.1z"/>
  <path d="M773.2 498.2 c-5.1 -4.6 -5.8 -9.4 -1.9 -13 2.1 -2 3.4 -2.2 13 -2.2 l10.7 0 0 3.3 c0 2.4 -1.3 5.1 -4.6 9.5 -4.4 5.9 -4.8 6.2 -8.8 6.2 -3.4 0 -4.9 -0.7 -8.4 -3.8z"/>
  <path d="M854.5 494.4 c-4.9 -3.6 -13.6 -8.8 -19.2 -11.6 -9.8 -4.8 -10.3 -5.2 -10.3 -8.2 0.1 -3.8 6 -12.3 9.6 -13.6 7.2 -2.8 14.5 -0.2 31 10.8 12.7 8.5 13.9 10 13.9 17.2 0 5.1 -0.4 6.3 -2.9 8.9 -2.6 2.7 -3.7 3.1 -8.1 3.1 -4.7 0 -5.7 -0.5 -14 -6.6z"/>
  <path d="M744.7 471.7 c-4.7 -4.2 -5.7 -5.8 -5.7 -8.3 0 -3.8 1.2 -4.9 8.2 -7.3 12.8 -4.4 22.3 -5.6 44.3 -5.6 11.6 0 22.2 0.3 23.8 0.8 4.5 1.2 3.7 5.5 -2.8 14.1 l-5.6 7.4 -18.2 0.4 c-14.5 0.3 -18.9 0.7 -21.6 2.1 -2.2 1.1 -5.7 1.7 -10 1.7 -6.5 -0.1 -6.7 -0.1 -12.4 -5.3z"/>
  <path d="M643 409.1 c-1.5 -2.8 -1.2 -8.3 0.5 -12.6 0.9 -2 1.9 -6.2 2.3 -9.3 l0.7 -5.7 4.7 -0.3 c3.7 -0.2 5 0.1 6.6 1.8 1.3 1.4 2.2 1.8 2.7 1.1 0.3 -0.6 1.6 -1.1 2.9 -1.1 1.2 0 2.6 -0.4 3.2 -0.9 0.5 -0.4 4.9 -1.8 9.8 -3 7.7 -1.9 11.4 -2.2 26.8 -2 12.4 0.1 18.2 -0.2 19.2 -1 0.8 -0.7 3.7 -1.1 6.8 -0.9 l5.3 0.3 0.6 6.5 c0.4 3.6 1.2 7.9 1.8 9.6 0.7 1.8 1.1 5.6 0.9 8.5 l-0.3 5.4 -5.3 0.3 c-6.3 0.4 -7.5 -0.4 -9.1 -5.8 -1.3 -4.4 -2.8 -5.5 -10.7 -7.6 -12 -3.1 -35.9 -0.3 -38.9 4.6 -0.3 0.6 -1.6 1 -2.8 1 -1.2 0 -3.8 0.9 -5.7 1.9 -1.9 1.1 -4.5 2.4 -5.7 3 -1.3 0.6 -2.3 1.9 -2.3 3 0 3.4 -2.8 5.1 -8 5.1 -3.9 0 -5.2 -0.4 -6 -1.9z"/>
  <path d="M639.5 365.4 c-17.6 -6.2 -37.3 -8.3 -58.5 -6.4 -29.9 2.8 -30 2.7 -30 -3.9 0 -5.1 3 -7.8 9.5 -8.4 2.8 -0.3 10.6 -1.1 17.4 -1.8 11.3 -1.1 12.5 -1.1 13.6 0.4 0.9 1.3 2.7 1.7 6.9 1.7 9 0 23.6 1.9 34 4.4 8.3 2 9.7 2.1 10.9 0.8 1.3 -1.2 2.2 -1.2 7 0.2 3.1 0.9 6.3 2.3 7.1 3.2 1.8 1.8 2.1 7.6 0.6 10.5 -1.5 2.7 -9.6 2.4 -18.5 -0.7z"/>
  <path d="M724.2 365.7 c-0.8 -0.9 -1.2 -3.5 -1 -6.3 l0.3 -4.7 5.9 -2.5 c5.4 -2.4 6 -2.4 7.1 -0.9 1.1 1.6 2 1.5 11.1 -1.3 12.3 -3.6 25.7 -6 34 -6 5.2 0 6.7 -0.4 8.3 -2.1 1.9 -2.1 2.6 -2.1 17.8 -1.7 8.7 0.3 17.1 1 18.6 1.7 2.7 1 2.8 1.4 2.5 6.8 l-0.3 5.8 -19 -0.3 c-17.8 -0.4 -35.6 0.9 -38 2.7 -1.8 1.3 -9.1 3.1 -13 3.1 -4.4 0 -11.4 1.8 -13.5 3.6 -1.7 1.3 -5.7 2.2 -14 3 -4.3 0.5 -5.9 0.3 -6.8 -0.9z"/>
  <path d="M555.8 298 c-1.3 -0.8 -1.8 -2.4 -1.8 -5.5 0 -6.7 0.6 -7.5 5.6 -7.5 6.9 0 23.9 -3.7 30.7 -6.6 9 -4 18.9 -10.7 24.1 -16.5 l4.5 -5 5.8 0.3 5.8 0.3 0.3 5.5 c0.3 5.4 0.1 5.6 -4.5 10.5 -14.6 15.3 -33.7 23.3 -59.9 25 -5.7 0.4 -9.5 0.2 -10.6 -0.5z"/>
  <path d="M782.3 286 c-14.7 -3.4 -29.3 -11 -37.6 -19.8 -2.5 -2.6 -2.8 -3.6 -2.5 -8.3 l0.3 -5.4 5.3 -0.3 c5 -0.3 5.5 -0.1 10.5 4.3 2.9 2.5 9.1 6.6 13.8 9 11.6 6 22.3 8.5 36.6 8.5 10.1 0 11.3 0.2 12.3 1.9 1.5 2.9 1.2 8.7 -0.6 10.5 -2.3 2.4 -27 2.1 -38.1 -0.4z"/>
 </g>
 <g fill="#e23836">
  <path d="M647.3 626.5 c-2.3 -1.6 -2.5 -2.8 -3.9 -26.7 l-0.6 -10.8 3.4 0 c5 0 5.8 1.4 5.8 10.3 0 9 1 11.7 4.5 11.7 1.6 0 2.5 0.6 2.5 1.5 0 1.1 1.2 1.5 4.6 1.5 3.7 0 5.2 0.5 7 2.5 1.3 1.4 3.3 2.5 4.4 2.5 1.8 0 2.1 0.5 1.8 3.8 -0.3 3.7 -0.3 3.7 -5.8 4.4 -10.5 1.2 -21.4 0.9 -23.7 -0.7z"/>
  <path d="M711 620.1 c0 -0.6 -0.4 -1.1 -1 -1.1 -2.3 0 -5 -3.6 -5 -6.6 l0 -3.2 6.8 -0.6 c3.7 -0.3 12.5 -1.1 19.7 -1.7 9.7 -0.9 13 -0.9 13.3 0 0.2 0.6 1 1.1 1.8 1.1 0.8 0 1.4 0.7 1.4 1.5 0 0.8 0.9 1.5 2.1 1.5 1.7 0 2 0.5 1.7 3.8 -0.3 3.7 -0.3 3.7 -5.8 4.5 -9 1.4 -35 2 -35 0.8z"/>
  <path d="M763 613.9 c0 -1.4 -0.9 -2.1 -3.1 -2.6 -2.8 -0.5 -3 -0.9 -2.7 -4.2 l0.3 -3.6 8 -0.7 c4.4 -0.3 12.1 -1.1 17 -1.7 14.3 -1.7 17.4 -1.5 19.7 1.4 1.1 1.4 2.8 2.5 3.9 2.5 1.5 0 1.9 0.7 1.9 3.5 0 2 -0.6 3.7 -1.2 3.9 -3.5 1 -19.7 2.6 -31 3 -12.2 0.5 -12.8 0.4 -12.8 -1.5z"/>
  <path d="M832 608.1 c0 -0.6 -1.5 -1.1 -3.3 -1.1 -4.8 0 -7.7 -2.4 -7.7 -6.4 0 -3.1 0.3 -3.4 3.8 -3.9 9.4 -1.5 22.9 -1.9 23.6 -0.8 0.4 0.6 1.6 1.1 2.7 1.1 1 0 1.9 0.7 1.9 1.5 0 0.8 0.9 1.5 2 1.5 1.6 0 2 0.7 2 3.4 0 4 -0.3 4.2 -15.2 5.2 -7 0.4 -9.8 0.3 -9.8 -0.5z"/>
  <path d="M873.2 599.6 c-1.8 -0.9 -2.2 -1.8 -2 -4.6 l0.3 -3.4 9.5 -1.2 c14.6 -1.8 30.3 -3.3 42.8 -4 l11.2 -0.7 0 3 c0 4.3 -1.7 5.2 -10.6 6.3 -4.4 0.5 -11.7 1.3 -16.4 1.9 -4.7 0.6 -13.2 1.5 -19 2.1 -5.8 0.6 -11.2 1.2 -12 1.4 -0.8 0.2 -2.5 -0.2 -3.8 -0.8z"/>
  <path d="M730.1 588 c-6.1 -5 -6.1 -5.1 -6.1 -10.4 0 -5.1 0.4 -5.9 6.5 -14.2 5.3 -7.2 7.1 -8.9 9.2 -8.9 2.2 -0.1 4.1 -2.1 11.5 -12.3 4.8 -6.8 8.8 -12.5 8.8 -12.7 0 -0.3 -0.9 -0.5 -2 -0.5 -3.1 0 -2.4 -3.2 1.4 -6.9 l3.4 -3.3 -3.3 -2.9 c-1.8 -1.6 -4.2 -2.9 -5.4 -2.9 -2.8 0 -2.7 -0.8 0.5 -3.2 l2.5 -2.1 -3 -3.1 c-1.7 -1.8 -3.1 -3.5 -3.1 -3.8 0 -0.3 2.5 -0.8 5.7 -1 4.4 -0.4 6.1 -1 7.6 -2.9 l1.9 -2.4 -5.1 -0.7 c-2.8 -0.5 -6.3 -1.5 -7.6 -2.4 -2.8 -1.8 -6.6 -1.1 -4.7 0.8 1.3 1.3 1.6 7.8 0.4 7.8 -0.4 0 -1.3 -0.5 -1.9 -1.1 -0.6 -0.6 -2.3 -0.9 -3.9 -0.7 -2.3 0.2 -3.7 -0.7 -7.7 -4.9 -3.5 -3.7 -4.8 -5.8 -4.4 -7.2 0.3 -1.3 -0.9 -3.3 -4.3 -6.6 -3.8 -3.7 -5.3 -4.6 -7.6 -4.3 -4.2 0.4 -6.4 -2.7 -6.4 -9.2 0 -4.6 0.5 -5.7 4.2 -10.1 l4.1 -4.9 7.2 0 c7 0 7.2 0.1 11 4 2.1 2.2 4.5 4 5.2 4 1.9 0 1.6 0.9 -0.8 2.9 -2 1.6 -2 1.7 3.9 6.9 4.7 4.1 6.8 5.2 9.4 5.2 2.7 0 4.3 1 8.3 5 4.2 4.3 5.5 5 8.7 5 2.1 0 3.8 0.2 3.8 0.5 0 0.3 -1.5 1.8 -3.2 3.5 l-3.3 2.9 4.5 4 c2.4 2.3 5 4.1 5.6 4.1 0.7 0 3.3 -2.8 5.8 -6.2 3.6 -4.8 4.3 -6.4 3.2 -6.8 -1.3 -0.4 -1.3 -0.9 -0.3 -3 1.1 -2.1 2.1 -2.5 6.4 -2.8 4.1 -0.2 5.1 -0.6 4.6 -1.8 -0.3 -0.7 -1.1 -1.4 -1.9 -1.4 -0.9 0 -1.4 -1.2 -1.4 -3.5 0 -3.2 0.3 -3.5 2.8 -3.5 1.6 0 3.2 -0.3 3.5 -0.7 0.4 -0.4 3.8 -0.8 7.5 -0.9 3.7 -0.1 8.7 -0.9 11.2 -1.8 2.5 -0.9 6.2 -1.6 8.2 -1.6 l3.8 0 -3.6 5 -3.6 5 4.6 2 c5.3 2.2 6 4 1.5 4 -4.5 0 -8.9 3.5 -8.9 6.9 0 2.6 -0.4 2.9 -4.2 3.4 -3.5 0.4 -5.1 1.4 -8.5 5.3 -4.8 5.5 -5.1 6.4 -2.3 7.1 2.8 0.7 2.5 1.5 -2 6.1 -2.2 2.2 -4 4.4 -4 4.8 0 0.5 3.8 2.2 8.5 3.8 7.1 2.4 8.5 3.3 8.5 5 0 1.9 -0.5 2.1 -4.3 1.8 -8.1 -0.7 -7.5 1.3 3.4 11.5 8.5 8.1 10.2 9.2 12.6 8.8 2.4 -0.5 4 0.6 11.6 7.8 l8.7 8.4 0 5.2 c0 4.9 -0.3 5.5 -5.2 10.6 -5.1 5.4 -5.3 5.5 -10.9 5.5 l-5.7 0 -18.8 -17.6 c-10.4 -9.7 -20.6 -19.3 -22.6 -21.2 l-3.8 -3.6 -2.5 2.4 c-1.4 1.3 -3.9 4.5 -5.7 7.1 -1.8 2.7 -4.1 4.9 -5 4.9 -1.2 0 -1.8 0.8 -1.8 2.3 0 2.6 -11.9 19.6 -13.7 19.6 -0.7 0.1 -1.3 0.8 -1.3 1.7 0 1.9 -3.1 6.6 -7.4 11.2 -2.6 2.7 -3.7 3.2 -7.7 3.2 -4.3 0 -5.4 -0.5 -10.8 -5z m22.1 -17.2 c0.5 -3.3 -0.7 -6.4 -2.7 -7.2 -2.1 -0.8 -6.5 0.6 -6.5 2 0 0.8 -0.4 1.4 -1 1.4 -0.5 0 -1 0.9 -1 2 0 1.5 0.7 2 3 2 1.6 0 3.5 0.7 4.2 1.5 2.1 2.3 3.5 1.7 4 -1.7z m15.6 -21.5 c-0.2 -2 -0.9 -2.9 -2.5 -3.1 -1.6 -0.2 -2.3 -1 -2.3 -2.5 0 -1.2 -0.3 -3.2 -0.6 -4.5 -0.6 -2.2 -0.8 -2.2 -2.5 -0.6 -2.5 2.3 -2.4 4.1 0.6 8 1.4 1.8 2.5 3.7 2.5 4.3 0 0.6 1.2 1.1 2.6 1.1 2.2 0 2.5 -0.4 2.2 -2.7z"/>
  <path d="M922.6 570.2 c-0.2 -0.4 -0.7 -4.4 -1.1 -8.8 -0.5 -6 -0.4 -8.3 0.5 -8.9 0.7 -0.4 1.6 -0.2 2.1 0.6 0.5 0.8 2.1 1.3 3.8 1.1 2.7 -0.3 2.9 0 3.6 3.8 0.4 2.7 0.3 4.6 -0.4 5.3 -0.6 0.6 -1.1 2.6 -1.1 4.4 0 3.1 -0.2 3.3 -3.4 3.3 -1.9 0 -3.7 -0.3 -4 -0.8z"/>
  <path d="M630.6 482.3 c-1 -9.5 -2.5 -26.2 -3.2 -35.8 -0.8 -11.7 -0.1 -12.5 12 -13.2 9.7 -0.7 9.2 -1.1 8 8.1 -0.6 4.1 -1 4.6 -3.2 4.6 -2.5 0 -2.5 0 -1.8 6.8 0.3 3.7 0.9 11.1 1.3 16.5 l0.6 9.7 -2.5 0 c-2.3 0 -2.7 0.5 -3.2 4.5 -0.7 4.3 -0.9 4.5 -4 4.5 -3.3 0 -3.4 0 -4 -5.7z"/>
  <path d="M831.7 460.1 c-1.5 -1.6 -2.7 -3.5 -2.7 -4.3 -0.1 -0.9 -0.4 -0.8 -1.3 0.3 -0.7 0.9 -3.3 2.3 -5.7 3 -2.5 0.7 -4.9 1.6 -5.4 2.1 -0.6 0.4 -2.3 0.8 -3.9 0.8 l-2.9 0 2.6 -3.4 c2.5 -3.4 2.5 -3.5 0.6 -4.1 -2 -0.6 -2 -0.7 -0.3 -3.6 1 -1.7 3.1 -4.6 4.6 -6.5 2.8 -3.3 3.1 -3.4 9.9 -3.4 6.8 0 7.2 0.2 11.9 4.1 4.7 3.9 4.9 4.3 4.9 9.1 0 6.9 -1.2 8.8 -5.8 8.8 -2.8 0 -4.4 -0.7 -6.5 -2.9z"/>
  <path d="M910 452 c0 -1.4 -0.3 -5.5 -0.6 -9.1 l-0.7 -6.6 3.3 -1.7 c4.1 -2 7.9 -2.1 8.6 -0.1 0.4 0.8 1 1.3 1.4 1 0.5 -0.3 1.1 1.9 1.5 4.7 0.3 2.9 0.8 6.5 1.1 8 0.5 2.3 0.1 2.8 -2.3 3.4 -1.5 0.4 -3.2 1 -3.8 1.4 -0.5 0.4 -2.7 1 -4.7 1.2 -3.5 0.4 -3.8 0.2 -3.8 -2.2z"/>
  <path d="M656.3 442.1 c-0.7 -1.1 -2.3 -2.1 -3.5 -2.3 -1.8 -0.2 -2.4 -1 -2.6 -3.9 -0.3 -3.6 -0.3 -3.6 4.4 -4.3 11.3 -1.5 28.4 -0.3 28.4 2 0 0.8 0.5 1.4 1 1.4 0.6 0 1 1.6 1 3.5 0 4.8 -2.2 5.5 -16.3 5.5 -10 0 -11.4 -0.2 -12.4 -1.9z"/>
  <path d="M713.3 436.7 c-0.7 -0.7 -1.9 -1.8 -2.8 -2.5 -0.8 -0.7 -1.5 -2.8 -1.5 -4.7 0 -4 -0.5 -3.8 14.5 -5.4 5.5 -0.5 14.5 -1.5 20 -2.1 13.9 -1.4 17.5 -1.3 17.5 0.5 0 0.8 0.4 1.5 0.9 1.5 2.3 0 4.1 -1.4 4.1 -3 0 -1.6 1.1 -1.9 8.8 -2.4 4.8 -0.2 13.9 -1 20.2 -1.6 17.1 -1.6 20.9 -0.1 21 8.3 0 4.1 -3.2 4.9 -21 5.4 -8.5 0.2 -16.4 0.8 -17.5 1.3 -3.2 1.3 -7.4 2.1 -16.5 3.1 -4.7 0.5 -11.2 1.3 -14.5 1.8 -9.1 1.4 -31.8 1.3 -33.2 -0.2z"/>
  <path d="M827 424.8 c0 -0.4 -0.8 -0.8 -1.9 -0.8 -2 0 -3.1 -2.5 -3.1 -7.2 0 -2.4 0.4 -2.7 4.8 -3.3 2.6 -0.3 7.9 -1 11.7 -1.5 3.9 -0.5 12.1 -1.2 18.3 -1.6 l11.3 -0.6 -0.3 6.3 c-0.3 5.7 -0.6 6.5 -2.8 7.5 -2.9 1.4 -38 2.5 -38 1.2z"/>
  <path d="M886 414.7 l0 -4.3 11.6 -1.2 c13.3 -1.3 15.4 -0.7 15.4 4.3 0 5 -1.2 5.5 -14.7 5.5 l-12.3 0 0 -4.3z"/>
 </g>
 <g fill="#e6483c">
  <path d="M670 626.2 c0 -0.6 -1.2 -1.3 -2.7 -1.5 -2 -0.3 -1.6 -0.4 1.4 -0.6 4.8 -0.1 7 -2.1 2.4 -2.1 -1.6 0 -3.3 -0.5 -3.7 -1.2 -0.5 -0.7 -0.2 -0.8 0.7 -0.3 0.8 0.5 1.1 0.4 0.6 -0.1 -0.5 -0.5 -1.4 -0.9 -2 -1 -6.4 -0.6 -6.4 -0.6 -3.2 -1.4 2.6 -0.7 2.2 -0.8 -2.2 -0.9 -4.1 -0.1 -5.3 -0.5 -5.3 -1.7 0 -1.1 -0.6 -1.3 -1.9 -0.9 -3.5 1.1 -5.6 -3.6 -5.2 -12.2 0.2 -5 -0.2 -7.9 -1.1 -9 -1.1 -1.4 -1.4 -1.3 -1.8 1.3 l-0.6 2.9 -1.8 -2.8 c-1.3 -1.9 -2.1 -5.8 -2.7 -12.5 -0.5 -5.3 -1.3 -13.7 -1.8 -18.7 -0.6 -4.9 -1.5 -14 -2 -20.1 -0.6 -6.2 -1.6 -15.2 -2.2 -20 -3 -24.3 -4.6 -53.3 -3 -56.1 0.6 -1.1 0.9 -0.5 0.9 2.3 0.2 5.5 1.9 16.3 2.2 13.9 0.6 -4.9 0.5 -7.5 -0.3 -7.5 -0.8 0 0 -9.9 0.9 -10.9 0.9 -0.9 3.1 2.9 4.1 6.9 l1.1 4.5 0.1 -4.2 c0 -2.3 -0.3 -4.4 -0.8 -4.7 -1.5 -1 0 -4.7 1.8 -4.4 1.2 0.3 1.6 1.5 1.7 4.8 0 2.5 0.4 5.2 0.7 6 0.3 0.8 0.8 4.9 1.2 9 0.3 4.1 1.2 13.4 2 20.5 2.5 22.3 11.5 109.1 11.5 110.3 0 0.7 0.7 1.2 1.5 1.2 0.8 0 1.5 -0.4 1.5 -0.9 0 -0.5 4.2 -1.2 9.3 -1.5 8.3 -0.5 16.6 -1.3 32.9 -3.2 4.4 -0.5 6.1 -0.3 7.9 1 l2.3 1.6 -3.4 0 -3.4 0 2.2 2 c1.2 1.1 2.6 2 3.2 2 0.5 0 1 0.5 1 1 0 0.6 2.3 1 5 1 4.3 0 5 0.3 5 2 0 1.1 -0.6 2 -1.2 2.1 -0.7 0 -5.1 0.5 -9.8 1 -4.7 0.5 -13 1.4 -18.5 1.8 -5.5 0.5 -13.3 1.2 -17.2 1.6 -5 0.6 -7.3 0.4 -7.3 -0.3z"/>
  <path d="M745 618.1 c0 -0.5 -0.8 -1.2 -1.7 -1.4 -1 -0.3 -0.4 -0.5 1.4 -0.6 3.5 -0.1 5.7 -2.1 2.4 -2.1 -1.2 0 -2.1 -0.7 -2.1 -1.5 0 -0.8 -0.7 -1.5 -1.5 -1.5 -0.8 0 -1.5 -0.4 -1.5 -1 0 -0.5 -0.9 -1 -2 -1 -1.3 0 -2 -0.7 -2 -1.9 0 -1.7 1.1 -1.9 11.8 -2.5 6.7 -0.4 13 -0.3 14.7 0.3 l3 0.9 -3.2 0.1 c-4.5 0.1 -5 1.8 -0.7 2.6 2.7 0.5 3.5 1 3.2 2.3 -0.4 1.5 0.4 1.7 6.9 1.4 6.7 -0.3 7.3 -0.2 7.3 1.6 0 1.8 -0.9 2.1 -7.7 2.7 -4.3 0.3 -10.2 1.1 -13.2 1.6 -7 1.2 -15.1 1.2 -15.1 0z"/>
  <path d="M646.2 613.6 c-1.4 -3.2 -1.6 -10 -0.3 -9.1 1.1 0.6 2.5 8.7 1.9 10.6 -0.2 0.6 -0.9 -0.1 -1.6 -1.5z"/>
  <path d="M801 612.2 c0 -0.6 -0.8 -1.3 -1.7 -1.5 -1 -0.3 -0.4 -0.5 1.4 -0.6 3.4 -0.1 5.7 -2.1 2.5 -2.1 -1.1 0 -2.5 -0.7 -3.2 -1.5 -0.7 -0.8 -2 -1.5 -2.9 -1.5 -1.4 0 -1.4 -0.2 -0.1 -1 1.2 -0.8 0.9 -1 -1.4 -1 -2.1 0 -2.7 -0.4 -2.2 -1.6 0.3 -0.9 0.6 -1.8 0.6 -2 0 -0.2 2.3 -0.4 5.2 -0.4 2.9 0 10.1 -0.5 16 -1.2 9.8 -1.1 11 -1 12.5 0.5 1.6 1.6 1.6 1.7 -1.2 1.7 l-3 0.1 2.4 1.9 c1.4 1.3 3.8 2 6.3 2 2.3 0 3.7 0.4 3.3 1 -0.3 0.6 0.3 1 1.4 1 1.2 0 2.1 0.4 2.1 0.8 0 1.8 -2.6 3.2 -6 3.2 -2 0 -4 0.4 -4.5 0.9 -1.5 1.4 -27.5 2.6 -27.5 1.3z"/>
  <path d="M848.5 606.1 c-2.9 -0.7 -2.9 -0.7 1.5 -1.6 3.8 -0.7 4.1 -0.9 1.8 -1.2 -1.8 -0.3 -2.5 -0.9 -2.1 -1.9 0.3 -0.8 -0.1 -1.4 -0.9 -1.4 -2.3 0 -6.8 -2.4 -6.8 -3.6 0 -2.5 31 -5.6 36 -3.6 l2.5 1.1 -2.7 0 c-2.6 0.1 -5.1 2.1 -2.6 2.1 0.7 0 1.9 0.4 2.7 0.9 2.1 1.3 -0.4 4.1 -3.5 4.1 -1.3 0 -2.4 0.4 -2.4 0.9 0 0.5 -2 1.2 -4.4 1.5 -2.4 0.4 -5 1.4 -5.6 2.1 -1.3 1.6 -8 1.8 -13.5 0.6z"/>
  <path d="M933.2 591.5 c0.3 -1.8 -0.3 -2 -4.7 -2 l-5.1 0 -0.1 -11.5 c-0.1 -6.3 0.2 -13.3 0.6 -15.5 l0.9 -4 0.1 4.2 c0.1 5.1 2.1 6.9 2.1 1.9 0 -1.9 0.5 -3.8 1 -4.1 0.6 -0.4 0.8 -1.1 0.5 -1.6 -0.4 -0.5 0.1 -0.9 0.9 -0.9 1.7 0 2.2 1.7 3.1 10.5 0.3 3.3 1.1 9.4 1.7 13.6 0.8 5.7 0.8 8 -0.1 9.5 -1.1 1.9 -1.1 1.9 -0.9 -0.1z"/>
  <path d="M734.4 588.5 c-0.4 -0.8 -1.4 -1.5 -2.4 -1.5 -1.1 0 -2.2 -0.4 -2.5 -1 -0.3 -0.5 -1.5 -1 -2.6 -1 -1.7 0 -1.9 -0.7 -1.9 -5.8 0 -5.8 0.3 -6.6 6.3 -13.5 0.9 -1.1 1.7 -2.4 1.7 -2.8 0 -0.4 0.9 -1 1.9 -1.4 1.4 -0.4 2.2 -1.9 2.7 -5 0.5 -3.9 0.8 -4.2 2.1 -3 0.8 0.8 1.6 1.5 1.8 1.5 0.2 0 2.7 -3.3 5.6 -7.2 10 -13.8 12 -15.3 17.8 -13.4 1.8 0.6 2.1 1 1 1.7 -0.8 0.5 -0.9 0.9 -0.3 0.9 0.5 0 0.9 1.4 0.8 3 -0.2 2.3 0.2 3 1.5 3 2.7 0 5.7 3.8 4.3 5.2 -0.7 0.7 -1.2 1.9 -1.2 2.7 0 0.9 1 0 2.3 -1.9 1.8 -2.8 2.2 -3.1 2.5 -1.6 0.2 1 -0.1 2.9 -0.7 4.2 -0.6 1.3 -1.6 3.5 -2.3 4.9 -1.3 2.8 -6.5 3.8 -5.4 1 0.5 -1.5 -0.6 -1.9 -5.1 -1.7 -1.5 0.1 -2.3 -0.5 -2.3 -1.5 0 -0.8 -1.3 -3.2 -3 -5.3 -1.6 -2 -2.7 -4 -2.3 -4.4 0.3 -0.3 -0.2 -0.6 -1.3 -0.6 -1.2 0 -2.8 1.3 -3.9 3.2 -1 1.8 -3.8 5.2 -6.3 7.6 -6.7 6.7 -16.2 20.1 -16.2 22.8 0 1.6 1.8 3.8 6.1 7.4 4.6 3.8 5.5 5 3.9 5 -1.1 0 -2.3 -0.7 -2.6 -1.5z"/>
  <path d="M745.1 587.4 c1.3 -1.4 2.5 -2 2.7 -1.4 0.7 2 -0.7 4 -2.9 4 l-2.2 0 2.4 -2.6z"/>
  <path d="M737.4 585.6 c-0.3 -0.9 -1.4 -1.6 -2.4 -1.6 -2.1 0 -7 -4.4 -7 -6.3 0 -0.8 1.1 -2.7 2.5 -4.3 1.4 -1.6 2.5 -3.2 2.5 -3.7 0 -0.4 1.2 -0.5 2.8 -0.1 2.5 0.6 2.6 0.5 0.8 -0.8 -1.7 -1.3 -1.7 -1.5 -0.1 -3.1 0.9 -0.9 2.1 -1.7 2.6 -1.7 0.5 0 0.9 -0.9 0.9 -2.1 0 -1.5 0.4 -1.9 1.9 -1.4 1.1 0.3 2.2 0.2 2.5 -0.4 0.6 -1 3.2 -0.9 7.8 0.4 1.6 0.4 2.6 1.1 2.3 1.5 -0.6 1 1.4 2.7 3.8 3.1 1.6 0.4 1.5 0.8 -0.8 4.1 -1.4 2 -2.5 4 -2.5 4.4 0 0.5 1.7 -1.6 3.8 -4.6 3.2 -4.6 3.7 -5 4 -3.1 0.2 1.2 -0.7 3.9 -2.1 5.9 -1.3 2.1 -2.7 4.7 -3.1 6 -0.6 1.6 -1.5 2.2 -3.8 2.2 -2.6 0 -2.9 -0.2 -1.8 -1.5 1.1 -1.3 0.7 -1.5 -2.4 -1.5 -2 0 -3.6 -0.4 -3.6 -0.9 0 -1.7 -4.2 -2.4 -5.1 -1 -0.7 1.1 -0.9 1.1 -0.9 0.1 0 -1.1 -0.3 -1 -1.4 0.1 -1.8 1.8 -0.9 5.7 1.3 5.7 1.4 0 1.4 0.2 0.1 1 -1.2 0.7 -0.8 1.1 1.8 1.6 4 0.8 3.7 2.8 -0.6 3.2 -2.2 0.2 -3.4 -0.2 -3.8 -1.2z"/>
  <path d="M832.7 582.3 c-0.4 -0.3 -0.7 -1.5 -0.7 -2.7 0 -1.5 0.3 -1.7 1.2 -0.8 1.3 1.3 3.2 1.7 2.4 0.4 -0.2 -0.4 1.5 -1.6 3.7 -2.6 2.3 -1 5 -2.2 6 -2.7 1.4 -0.8 1.7 -0.4 1.7 2.1 0 1.7 -0.5 3 -1.3 3 -0.7 0 -1.8 0.9 -2.5 2 -0.9 1.5 -2.3 2 -5.5 2 -2.4 0 -4.7 -0.3 -5 -0.7z"/>
  <path d="M816.7 568 c-2.4 -2.3 -3.7 -4.5 -3.5 -5.7 0.3 -1.5 1.5 -0.8 6.3 3.9 5.4 5.2 5.7 5.8 3.5 5.7 -1.5 0 -4 -1.5 -6.3 -3.9z"/>
  <path d="M819.8 565.1 c-4.4 -4.3 -4.8 -6 -1.3 -5.7 1.7 0.2 2.6 -0.3 3.1 -1.7 0.5 -1.6 0.8 -1.7 1.5 -0.6 0.7 1.2 0.9 1.2 0.9 0 0 -0.7 0.6 -1.1 1.3 -0.8 0.7 0.3 1.9 -0.4 2.6 -1.5 1.1 -1.7 1.5 -1.8 2.2 -0.7 0.6 1 0.9 1 0.9 0.2 0 -2.1 4 -1.4 7.2 1.2 1.6 1.4 2.4 2.5 1.8 2.5 -0.7 0 -0.9 0.8 -0.5 2 0.5 1.7 0.2 2 -2.7 2.1 -1.8 0.1 -4 0.1 -4.9 0 -0.8 -0.1 -2.1 1.3 -3 3.1 -1.9 4.5 -4.6 4.5 -9.1 -0.1z"/>
  <path d="M838 553.5 c-3 -3 -5.9 -5.5 -6.4 -5.5 -0.5 0 -2.4 -1.1 -4.2 -2.5 -3.4 -2.6 -5.4 -3.2 -5.4 -1.5 0 0.5 -0.7 0.7 -1.5 0.4 -0.8 -0.4 -1.7 0.1 -2.1 1 -0.3 0.9 -1.4 1.6 -2.4 1.6 -1 0 -2.1 0.7 -2.4 1.6 -0.4 1.1 -1.5 1.5 -3.6 1.2 -1.6 -0.3 -3.1 0 -3.3 0.6 -0.3 1 -2.7 0 -2.7 -1.3 0 -0.4 1.1 -1.3 2.5 -1.9 1.5 -0.7 2.5 -2 2.5 -3.2 0 -1.1 0.3 -2 0.8 -1.9 1.7 0.3 5.1 -1.4 4.6 -2.2 -0.5 -0.9 0.8 -1.3 4 -0.9 1.5 0.1 0.9 -0.8 -2.2 -4 l-4.1 -4.3 -4.8 1.7 c-5.2 1.8 -13.3 2.7 -13.3 1.4 0 -0.7 1.4 -1 3.6 -0.7 0.3 0 1.2 -0.8 1.9 -1.8 0.7 -1 2.2 -1.8 3.2 -1.8 1 0 1.7 -0.5 1.6 -1 -0.2 -1.5 3.6 -1.6 6.1 -0.3 1.2 0.6 6 4.9 10.8 9.5 8.6 8.2 10.1 9.2 11.3 7.3 1.2 -2 2.5 -0.9 2.5 2 0 2.2 0.5 3 1.8 3 2.7 0.1 7.4 4.7 7 7.1 -0.3 1.7 -1.1 1.2 -5.8 -3.6z"/>
  <path d="M801.4 552.5 c-1.2 -3 0.2 -3.5 2.5 -1.1 l2.4 2.6 -2.2 0 c-1.2 0 -2.4 -0.7 -2.7 -1.5z"/>
  <path d="M778.7 533.4 c-0.4 -0.4 -0.2 -1.3 0.4 -2.1 0.7 -0.8 0.8 -1.3 0.1 -1.3 -1.2 0 -2.2 -3.4 -1.3 -4.9 0.5 -0.7 1.8 -0.7 4.6 0 5.1 1.4 5.1 1.4 2.6 4 -1.1 1.2 -2.4 1.9 -2.8 1.5 -0.4 -0.3 -1.2 0.3 -1.8 1.4 -0.6 1.1 -1.4 1.8 -1.8 1.4z"/>
  <path d="M787.6 524.4 c-0.3 -0.8 -1 -1.2 -1.6 -0.9 -0.5 0.3 -1 0.1 -1 -0.4 0 -0.6 0.6 -1.1 1.4 -1.1 0.9 0 1.3 -0.7 1.1 -1.9 -0.2 -1.4 0.1 -1.7 1.4 -1.4 1.1 0.3 1.8 -0.1 1.8 -1.1 0 -0.9 -0.5 -1.6 -1 -1.6 -0.6 0 -0.7 -0.3 -0.3 -0.7 1.1 -1.1 8.6 -1.2 8 -0.1 -0.3 0.5 0 1.6 0.7 2.4 1.8 2.2 -0.8 4.4 -5.3 4.6 -2.9 0.1 -3.4 0.4 -3 2 0.5 2.2 -1.3 2.4 -2.2 0.2z"/>
  <path d="M799.7 517.2 c-1.5 -1.6 -1.5 -2.1 -0.3 -3.7 1.3 -1.8 1.4 -1.7 2.1 1.4 0.9 4 0.3 4.7 -1.8 2.3z"/>
  <path d="M773.4 514.8 c0.2 -0.7 -0.1 -2.3 -0.5 -3.6 -0.8 -2 -0.7 -2.1 1 -1.2 1.4 0.7 2.2 0.6 3 -0.4 1.9 -2.2 5.1 -2.7 5.1 -0.8 0 1.3 0.2 1.4 0.9 0.4 0.7 -1.1 0.9 -1.1 1.4 0.1 0.4 1 -0.4 1.9 -2.4 2.7 -1.6 0.7 -2.9 1.7 -2.9 2.2 0 0.6 -0.7 0.5 -1.5 -0.2 -1.1 -0.9 -1.5 -0.9 -1.5 -0.1 0 0.7 -0.4 1 -0.9 0.7 -0.5 -0.4 -1.2 -0.1 -1.4 0.4 -0.3 0.6 -0.4 0.5 -0.3 -0.2z"/>
  <path d="M751.8 502.5 c-2.7 -2.4 -4.8 -4.6 -4.8 -5 0 -1.1 -12.4 -13.5 -12.9 -12.9 -0.3 0.2 1.9 2.9 4.9 5.9 4 4.1 5.1 5.8 4.3 6.6 -0.9 0.9 -2.1 0.1 -4.9 -3 -3.2 -3.4 -4.4 -4.1 -7.6 -4.1 -4.5 0 -4.7 -0.5 -1.2 -3.2 l2.6 -2.1 -4.8 -4.8 c-2.7 -2.7 -4.4 -4.9 -3.9 -4.9 0.6 0 0.6 -0.3 0 -0.8 -0.5 -0.4 -1.6 -1.5 -2.4 -2.5 -1.3 -1.7 -1.1 -1.7 3 -1.1 3.9 0.6 9.1 3.4 6.2 3.4 -0.6 0 -1.4 -0.6 -1.6 -1.2 -0.4 -1 -0.6 -0.9 -0.6 0.1 -0.1 0.8 -0.9 2 -1.8 2.8 -1 0.7 -1.3 1.2 -0.8 1.1 0.6 -0.2 1.1 0.2 1.3 0.7 0.6 2 4.6 5.5 6.2 5.5 0.8 0 2.5 0.7 3.7 1.5 1.2 0.8 3 1.2 4 0.9 1.5 -0.5 1.5 -0.4 0.3 0.5 -1.2 0.9 -1.2 1.1 0.2 1.6 2.5 1 5.3 0.2 5.3 -1.5 0 -2.5 3 -2.2 7.4 0.7 2.3 1.5 4.9 2.8 5.9 3 4 0.9 5.8 0.9 7.5 0.1 1.3 -0.7 1.7 -0.4 1.7 1 0 1 0.6 2.4 1.2 3 0.9 0.9 1 1.5 0.2 2 -0.6 0.4 -1.6 1.7 -2.2 2.8 -1.5 2.9 -8.5 6.5 -10.3 5.3 -0.8 -0.5 -2 -0.9 -2.8 -0.9 -1.1 0 -1 0.5 0.4 2 3 3.3 1.3 2.2 -3.7 -2.5z"/>
  <path d="M783 499.8 c0 -0.7 2.1 -4 4.6 -7.3 4.1 -5.5 4.3 -6 2.5 -6.3 -1.2 -0.2 -2.1 -0.7 -2.1 -1.1 0 -0.5 2.2 -3.8 5 -7.4 3.5 -4.7 5.8 -6.7 7.9 -7.2 2 -0.4 4.2 -2.2 6.5 -5.3 4 -5.5 8 -9.4 9.2 -9.1 0.5 0.2 2.3 -0.1 4 -0.5 2.6 -0.6 3.1 -1.1 2.7 -2.9 -0.4 -1.8 -0.3 -1.9 0.6 -0.7 1 1.3 1.5 0.8 1.2 -1.2 0 -0.5 0.7 -0.8 1.6 -0.8 1.5 0 1.6 -0.2 0.3 -1 -1.3 -0.8 -1.2 -1 0.3 -1 0.9 0 1.7 0.7 1.7 1.5 0 0.8 0.5 1.5 1 1.5 0.6 0 1.5 1.1 2 2.5 0.5 1.4 1.7 2.5 2.5 2.5 0.9 0 1.4 0.4 1.1 0.9 -0.3 0.5 0.1 1.5 1 2.2 1.4 1.1 1.8 1.1 2.8 -0.3 0.9 -1.3 1.3 -1.3 2.4 -0.2 2.1 2.3 1.3 4.2 -2.2 4.8 -1.8 0.4 -4.1 1.5 -5.1 2.6 -1 1.1 -2.6 2 -3.6 2 -1.3 0 -1.7 0.5 -1.3 1.8 0.4 1.2 0.3 1.3 -0.3 0.4 -0.8 -1 -1.8 -1 -5.4 0.1 -2.4 0.8 -5.1 1.5 -5.9 1.5 -0.8 0 -2.6 0.3 -3.9 0.6 -1.3 0.3 -4.2 0.1 -6.5 -0.4 -3.2 -0.7 -4.4 -0.6 -5.6 0.5 -1.2 1.3 -1.2 1.5 0.2 1.5 0.9 0 2.2 1.4 3 3.1 1.4 3.3 9.9 8.5 12.4 7.5 2 -0.8 1.7 0.1 -1.3 4 -1.9 2.6 -2.8 3.2 -3.4 2.2 -0.5 -0.7 -0.9 -0.8 -0.9 -0.2 0 1.2 -2.9 1.5 -3.1 0.2 -0.1 -0.4 -0.3 -1.2 -0.4 -1.8 -0.1 -0.5 -0.3 -1.5 -0.4 -2.1 0 -0.6 -0.8 -0.9 -1.6 -0.5 -1 0.3 -1.5 -0.1 -1.5 -1.2 0 -1.3 -0.2 -1.4 -0.9 -0.4 -0.7 1.1 -0.9 1.1 -1.3 0 -0.9 -2.2 -7.9 -1.6 -9.2 0.8 -1.7 3 -9.9 15.4 -10.3 15.4 -0.2 0 -0.3 -0.6 -0.3 -1.2z"/>
  <path d="M818.2 489.2 c-0.9 -0.6 -0.6 -1.4 1.3 -3.2 l2.5 -2.3 0 3.1 c0 3.2 -1.2 4 -3.8 2.4z"/>
  <path d="M717.7 474.4 c-0.4 -0.4 -0.7 -1.7 -0.7 -2.8 0 -1.9 0.1 -1.9 1.7 -0.3 1.2 1.1 1.4 2 0.7 2.7 -0.6 0.6 -1.3 0.7 -1.7 0.4z"/>
  <path d="M812.5 454 c-0.3 -0.5 0.3 -1 1.5 -1 1.2 0 1.8 0.5 1.5 1 -0.3 0.6 -1 1 -1.5 1 -0.5 0 -1.2 -0.4 -1.5 -1z"/>
  <path d="M640.3 445.3 c-2.3 -0.9 -1.4 -2.3 1.5 -2.3 1.9 0 2.3 -0.3 1.3 -0.9 -0.7 -0.5 -1 -1.4 -0.7 -2 0.4 -0.6 0 -1.1 -1.1 -1.2 -1.3 0 -0.9 -0.5 1.2 -1.5 l3 -1.4 -4.2 0.3 c-2.4 0.1 -4.3 -0.1 -4.3 -0.4 0 -2.3 16.1 -4 20.7 -2.2 1.4 0.6 1.1 0.9 -1.7 1.4 -2.9 0.5 -3.2 0.7 -1.5 1.3 4.5 1.7 6.4 2.9 5.9 3.8 -0.3 0.4 3.3 0.8 8 0.8 7.7 0 8.6 0.2 8.6 1.8 0 1.7 -1.3 2 -12.7 2.5 -14.5 0.8 -22.2 0.8 -24 0z"/>
  <path d="M678 441.7 c0 -0.8 1 -1.8 2.3 -2.2 l2.2 -0.8 -2.3 -0.4 c-1.8 -0.3 -2.1 -0.8 -1.2 -1.7 0.8 -1.1 0 -1.5 -4 -2 -4.1 -0.5 -5 -1 -5 -2.6 0 -2.2 1.6 -2.7 10 -3.3 3 -0.3 11.7 -1 19.2 -1.7 14.7 -1.3 19.2 -0.9 15 1.4 -2.2 1.2 -2.3 1.4 -0.7 2.9 0.9 1 2.3 1.7 3.1 1.7 0.8 0 1.2 0.5 0.9 1 -0.4 0.6 2.3 1 7.4 1 7.3 0 8.1 0.2 8.1 1.9 0 1.7 -1.1 1.9 -9.7 2.5 -5.4 0.4 -14.1 1.1 -19.3 1.7 -19.3 2 -26 2.2 -26 0.6z"/>
  <path d="M920 439.5 c0 -2.5 -0.4 -3.5 -1.5 -3.5 -0.9 0 -1.8 0.6 -2.1 1.4 -0.3 0.8 -1.2 1.2 -2 0.9 -1 -0.4 -1.7 0.2 -2.1 1.6 -0.3 1.1 -1.1 2.1 -1.8 2.1 -0.9 0 -1.5 -2.5 -1.9 -7.7 -0.4 -4.3 -1 -9.3 -1.3 -11.1 l-0.5 -3.3 -10.2 0.6 c-5.5 0.3 -11.9 1 -14.1 1.5 -2.2 0.5 -8.2 1.2 -13.2 1.5 -7.3 0.4 -9.3 0.3 -9.3 -0.7 0 -0.7 1 -1.8 2.3 -2.3 2.9 -1.3 3.4 -7.5 0.5 -7.5 -1 0 -1.8 -0.4 -1.8 -0.9 0 -1.6 2.5 -2.8 7.3 -3.5 4 -0.6 4.7 -0.5 4.7 0.9 0 1.4 1 1.6 8 0.9 8.5 -0.7 8.7 -0.6 8.1 4.4 -0.3 1.8 18.2 1.7 19.8 -0.1 0.8 -1.1 0.5 -1.7 -1.4 -2.7 -4.2 -2.3 -3.1 -4 2.5 -4 5.8 0 5.6 -0.2 6.9 9.5 0.6 3.8 1.5 7.1 2 7.3 0.6 0.2 0.8 1.7 0.4 3.3 -0.7 3.6 1.3 8 3.3 7.2 1 -0.4 1.4 0.3 1.4 2.1 0 1.4 -0.4 2.6 -1 2.6 -0.5 0 -1 0.7 -1 1.5 0 0.8 -0.4 1.5 -1 1.5 -0.5 0 -1 -1.6 -1 -3.5z"/>
  <path d="M771 431.5 c0 -0.8 0.6 -1.5 1.4 -1.5 0.7 0 1.9 -0.7 2.6 -1.5 1 -1.3 0.9 -1.5 -1.2 -1.5 -1.5 0 -2.5 -0.6 -2.5 -1.5 0 -2.2 4.4 -1.9 6.4 0.5 1.3 1.5 3 2 7 2 4.5 0 5.3 0.3 5.3 1.9 0 2.2 -3.5 3.1 -12.6 3.1 -5 0 -6.4 -0.3 -6.4 -1.5z"/>
  <path d="M809 427.7 c0 -0.8 1 -1.7 2.2 -2 1.7 -0.5 1.9 -0.9 1 -2 -0.7 -0.8 -1 -1.6 -0.7 -1.8 0.2 -0.3 -1.6 -1.1 -4.1 -1.8 -3.2 -1 -4.4 -1.8 -4.2 -3 0.3 -1.3 2.4 -1.7 11.7 -2.4 6.3 -0.4 12 -0.6 12.7 -0.3 2.2 0.8 1.6 2.6 -0.7 2.6 -1.7 0 -1.9 0.3 -1 1.3 0.6 0.8 0.8 1.7 0.4 2 -0.3 0.4 -0.1 0.7 0.5 0.7 0.6 0 1.4 -0.5 1.7 -1 0.8 -1.3 2.8 -0.1 2.2 1.4 -0.3 0.8 2.5 1 10.4 0.8 10.4 -0.3 10.9 -0.2 10.9 1.7 0 1.5 -0.7 2.1 -2.2 2.2 -1.3 0 -7.2 0.5 -13.3 1 -23.9 2.1 -27.5 2.2 -27.5 0.6z"/>
  <path d="M755.1 426.6 c-1 -1.2 -0.8 -1.5 1.1 -2 1.3 -0.2 0.6 -0.4 -1.4 -0.2 -2.4 0.1 -3.8 -0.2 -3.8 -1 0 -2.1 16.2 -3.9 23.5 -2.5 l5 0.9 -5.3 0.1 c-4.8 0.1 -5.3 0.3 -5 2.2 0.3 2.3 0.2 2.4 -8.3 3.4 -3.3 0.4 -5 0.1 -5.8 -0.9z"/>
  <path d="M696.3 406.3 c-2.3 -0.9 -1.5 -6.9 1.3 -10.2 2 -2.4 3.4 -3.1 6 -3.1 2.2 0 3.7 0.6 4 1.5 0.4 0.8 1.2 1.5 2 1.5 1.8 0 1.8 4.6 0.2 8.3 -1.2 2.5 -1.8 2.7 -6.8 2.6 -3 0 -6.1 -0.3 -6.7 -0.6z"/>
  <path d="M659.9 385.8 c-1.2 -2.2 -0.8 -14.5 0.5 -16.7 0.4 -0.6 2.9 -1.1 5.5 -1.1 l4.7 0 1.2 6 c1 4.9 1.6 6 3.2 6 3.5 0 2.2 2.9 -1.5 3.6 -1.9 0.3 -3.8 1 -4.1 1.5 -0.3 0.5 -1.6 0.9 -2.9 0.9 -1.3 0 -2.7 0.5 -3 1 -1 1.6 -2.3 1.2 -3.6 -1.2z"/>
  <path d="M710.6 372.3 c-0.3 -2.1 -0.6 -5.3 -0.6 -7.2 l0 -3.4 4.4 0.5 c6 0.7 7.6 2.5 7.6 8.7 l0 5.1 -5.4 0 -5.3 0 -0.7 -3.7z"/>
  <path d="M664 361 c0 -0.5 -0.7 -1 -1.5 -1 -1 0 -1.5 -1.1 -1.5 -3.5 0 -2.6 0.9 -4.5 3.7 -7.6 3.5 -3.8 4 -4.1 8 -3.6 5 0.5 7.3 2.6 7.3 6.4 -0.1 3.1 -4.1 8.3 -6.4 8.3 -0.8 0 -1.8 0.5 -2.1 1 -0.3 0.6 -2.2 1 -4.1 1 -1.9 0 -3.4 -0.4 -3.4 -1z"/>
  <path d="M705.2 358 c-2.9 -3.9 -2.8 -7.7 0.4 -10.6 5.6 -5.3 13.8 -1.4 13.2 6.2 -0.2 2.9 -0.9 4.2 -2.5 4.9 -1.3 0.5 -2.3 1.3 -2.3 1.7 0 0.5 -1.5 0.8 -3.3 0.8 -2.5 0 -3.9 -0.7 -5.5 -3z"/>
 </g>
 <g fill="#f79404">
  <path d="M680.2 414 c-5.2 -3.8 -13.2 -13.8 -13.2 -16.6 0 -1.2 0.8 -2.4 1.8 -2.8 0.9 -0.3 3.1 -1.4 4.8 -2.5 8.5 -5.2 45.4 -5.5 45.4 -0.3 0 2.3 -9.6 15.5 -14.8 20.5 l-5.1 4.7 -7.4 0 c-6.6 0 -7.8 -0.3 -11.5 -3z m25.3 -10.9 c-0.3 -0.2 0.2 -1.3 1.2 -2.3 1.1 -1.3 1.2 -1.8 0.3 -1.8 -0.7 0 -1.8 -0.7 -2.5 -1.6 -1 -1.4 -1.5 -1.2 -3.9 1.6 -2.1 2.6 -2.4 3.5 -1.4 4.1 1.3 0.9 7.1 0.9 6.3 0z"/>
  <path d="M668.9 377.2 c-1 -5 -1.5 -5.8 -3.3 -5.7 -1.7 0.1 -2.3 1.1 -3 4.8 -0.7 3.7 -1.4 4.7 -2.9 4.7 -1.8 0 -1.9 -0.7 -1.6 -11.3 0.4 -12.2 2 -16.7 6 -16.7 1.7 0 1.8 0.3 0.8 2.1 -0.7 1.3 -0.7 1.9 -0.1 1.5 0.6 -0.4 1.5 0.2 2.1 1.1 0.9 1.7 1 1.7 1.6 0.1 0.4 -0.9 1.3 -1.4 2 -1.1 2.1 0.7 6.5 -4.7 5.1 -6.3 -0.6 -0.6 -1.4 -1 -1.8 -0.8 -0.4 0.2 -1 -0.1 -1.3 -0.7 -0.5 -0.7 -1.5 -0.3 -3.1 1.2 l-2.4 2.2 0 -2.5 c0 -3.2 4.2 -7.5 10 -10.1 6.5 -2.9 20.1 -3.5 27 -1.2 5.6 1.9 12 7.4 12 10.5 0 1.2 0.8 2 2.3 2.2 3.3 0.5 5.6 8.2 5.6 18.8 0.1 4.7 -0.2 9.5 -0.5 10.7 -0.6 2.1 -0.8 2.1 -4.6 0.7 -5.6 -1.9 -29.4 -1.9 -36.8 0.1 -3 0.8 -6.9 1.5 -8.7 1.5 -3.1 0 -3.3 -0.2 -4.4 -5.8z m50.1 -6.7 c0 -1.8 -0.4 -2.3 -1.5 -1.9 -1.1 0.4 -1.3 0.2 -1 -0.9 0.4 -0.9 -0.2 -1.6 -1.5 -2 -1.9 -0.5 -2.1 -0.2 -1.6 1.6 0.3 1.2 0.6 3 0.6 4 0 1.1 0.8 1.7 2.5 1.7 2 0 2.5 -0.5 2.5 -2.5z m-18.3 -8.2 c-0.3 -1 -0.5 -0.2 -0.5 1.7 0 1.9 0.2 2.7 0.5 1.8 0.2 -1 0.2 -2.6 0 -3.5z m11.7 -6.7 c0.7 0.3 1.9 -0.2 2.6 -1.1 1.1 -1.4 1 -2 -1.2 -4.1 l-2.5 -2.5 -2.5 2.2 -2.6 2.3 2.2 2.9 c1.5 2.1 2.2 2.5 2.4 1.3 0.2 -0.8 0.9 -1.3 1.6 -1z"/>
 </g>
 <g fill="#54c2e9">
  <path d="M574.5 650.6 c-33.5 -13.3 -54 -35 -65.4 -69.1 -6.5 -19.3 -8.3 -32.7 -8.5 -60.9 l-0.2 -23.9 -8.9 -3.6 c-39.9 -16.1 -71.2 -51.2 -81.6 -91.6 -4 -15.4 -4.3 -31.3 -1 -44 6.6 -24.8 25.7 -50.3 52.6 -70.3 10.9 -8.1 37.2 -23.8 41.6 -24.9 1.3 -0.3 2.9 -1 3.6 -1.5 0.6 -0.5 3.6 -1.2 6.6 -1.5 4.9 -0.5 5.6 -0.3 6.1 1.4 0.4 1.1 0.2 3.3 -0.4 4.8 -2.2 5.8 -5.2 8.6 -14.3 13.1 -14.8 7.4 -30.4 19.5 -29.2 22.6 1.5 3.7 4.3 3.1 11.8 -2.5 14.8 -11 30.1 -18.9 34 -17.4 3.7 1.4 1.9 8.6 -4.4 18.3 -3.4 5.2 -4.6 6.3 -7.6 6.9 -5.5 1 -15 6.1 -20.2 10.9 -2.5 2.4 -5.4 4.5 -6.3 4.9 -2.8 1 -4 4.3 -2.2 6.1 2.3 2.3 3.6 2 9 -2.2 9.3 -7.4 18.4 -12.2 23 -12.2 3.9 0 4.2 0.2 4.6 2.9 0.7 4.6 -1.6 11.7 -5.5 17.4 -9.3 13.3 -28.4 30.9 -45 41.2 -9.1 5.7 -10.1 6.7 -9.2 9.5 1.1 3.6 5.6 2.5 14.3 -3.5 4.4 -3 8.8 -5.5 9.9 -5.5 1.2 0 2.9 2.2 5.5 7.3 6.8 13.1 20.8 27.2 26.5 26.5 4.3 -0.5 4.2 -3.9 -0.3 -8 l-3.7 -3.3 0.7 -16 c0.4 -8.8 1.3 -20.8 2 -26.6 1.1 -8.9 1.8 -11.4 4.3 -15 5.6 -8.1 7.6 -13.1 8 -19.9 0.3 -5.1 0 -7.2 -1.5 -10 l-1.9 -3.4 3.2 -5.1 c5.5 -8.8 7.2 -15.2 5.5 -21.4 -0.6 -2.4 -2.1 -4.8 -3.5 -5.7 -2.1 -1.4 -2.3 -1.9 -1.3 -3.7 2 -3.9 2.7 -9.1 1.7 -13 -0.8 -3.1 -2.3 -4.8 -6.7 -7.2 -0.8 -0.5 5.2 -30.5 7.6 -37.8 4.6 -13.4 6.7 -15.7 15 -15.7 5.5 0 21 5.5 34 12.1 6.4 3.3 12.3 5.9 13.2 5.9 0.8 0 5.1 -1.8 9.5 -4 4.4 -2.2 8.6 -4 9.3 -4 0.7 0 2.3 -0.7 3.6 -1.5 5.4 -3.6 33 -11.5 40 -11.5 2.3 0 4.7 -0.5 5.3 -1.1 2.9 -2.9 47.6 -3.9 64.1 -1.4 20.9 3.2 40.6 9.3 60.1 18.5 5.7 2.8 11 5 11.8 5 0.7 0 6.2 -2.5 12.1 -5.5 5.9 -3.1 12.5 -6 14.7 -6.6 2.2 -0.5 6 -1.8 8.5 -2.9 2.5 -1 7.5 -2.1 11.2 -2.5 6.4 -0.7 6.8 -0.6 9.2 2 7.1 7.6 15.7 51.5 15.6 79.4 -0.1 5.3 -0.7 14.7 -1.4 20.9 -1.3 11 -1.3 11.7 1 20.5 2.9 11.4 6 29.8 7.4 43.8 1.1 11.7 1.6 44.1 0.7 45.6 -0.8 1.2 -6.6 2.1 -20.2 3.3 -5.5 0.5 -14 1.4 -19 2 -4.9 0.6 -13.7 1.6 -19.5 2.1 -5.8 0.6 -14.3 1.5 -19 2 -4.7 0.5 -12.5 1.4 -17.5 1.9 -4.9 0.5 -13.3 1.4 -18.5 1.9 -5.2 0.5 -14.7 1.5 -21 2 -6.3 0.6 -15.1 1.6 -19.5 2.1 -4.4 0.6 -12.7 1.5 -18.5 2.1 -5.8 0.6 -14.1 1.4 -18.5 2 -15 1.8 -24 2.7 -35.9 3.8 -16.2 1.4 -16.2 1.3 -14.7 15.7 0.6 6 1.4 12.3 1.6 14 0.5 2.9 0.1 3.3 -9.2 9.4 -12.2 7.9 -28.6 24.2 -36.6 36.1 -10.4 15.7 -17.1 33 -20.2 51.9 -1.9 11.9 -1.9 18.9 0 31.2 2.4 15.8 8.5 31 17.4 43.3 5.6 7.6 5.8 8.3 3.6 9.2 -0.9 0.3 -2.3 2 -3.3 3.8 l-1.7 3.3 -8 -3.2z m126.7 -241.3 c2.8 -2.7 7.3 -8.1 10 -12 2.7 -4 5.5 -7.3 6.4 -7.3 3.6 0 7.3 3.1 8.5 7 1.5 4.8 3 6.3 6.1 5.8 1.5 -0.2 2.4 -1.1 2.6 -2.5 0.4 -2.9 4.7 -3.1 10 -0.4 5.8 2.9 20.9 6.3 27.7 6.2 26.6 -0.4 52.8 -16.5 65.5 -40.3 6.2 -11.5 10 -26.2 10 -38.2 0 -10.1 -3.1 -21.1 -9.5 -34.2 -8.7 -17.9 -22.3 -30.8 -39.6 -37.7 -9.8 -3.9 -19.4 -6 -27.9 -6 -16.4 0.1 -40 8.8 -53.4 19.9 -7.7 6.3 -16.7 17.6 -20.9 26.2 -2.9 5.7 -3.4 6.2 -6.4 6.2 -2.7 0 -3.6 -0.6 -4.9 -3.2 -13 -25.3 -38.3 -43.2 -68.3 -48.5 -9.4 -1.6 -17.2 -0.8 -29 2.8 -32.3 10.1 -55.3 41.5 -55.2 75.4 0 12.2 2.2 20.8 8.7 34.2 11.1 22.6 29.4 37 53.4 41.9 12.1 2.4 24.1 1.6 35.6 -2.6 4.9 -1.8 10.7 -3.5 12.8 -3.7 3.5 -0.5 3.8 -0.4 3.1 1.3 -1.5 3.8 -1.6 4.9 -0.2 6.8 2.2 2.9 6.6 1.4 7.4 -2.5 0.3 -1.7 1.5 -3.5 2.7 -4 1.2 -0.6 3.7 -1.9 5.6 -3 5.5 -3 7 -2.4 12 4.4 6.4 8.7 12 12.7 17.6 12.7 4 0 5.1 -0.6 9.6 -4.7z"/>
  <path d="M803 649.4 c-0.8 -1.4 -2.2 -3 -3.2 -3.5 -2.5 -1.4 -2.3 -2.5 1.7 -8 3 -4 11.7 -21.1 13.8 -27.1 0.5 -1.3 1.7 -1.8 4.7 -1.8 2.2 0 4.8 -0.4 5.8 -0.9 2.3 -1.2 14.6 -2.9 27.1 -3.7 l10.3 -0.7 -2.7 4.4 c-7.7 12.2 -17.3 22.3 -28.2 29.4 -8.3 5.5 -25.1 14.5 -27 14.5 -0.5 0 -1.6 -1.2 -2.3 -2.6z"/>
  <path d="M921 543.6 c-13.5 -3.8 -19.2 -10.6 -14.4 -17.4 1.3 -1.9 2.5 -2.2 8.2 -2.3 14.4 -0.1 21.1 -2.4 19.5 -6.5 -0.4 -1.1 -3.1 -1.4 -12 -1.4 -6.3 0 -13.4 -0.5 -15.9 -1.1 -13.1 -3.3 -14.2 -16.2 -1.9 -22.7 4.7 -2.5 5.8 -2.7 18.5 -2.7 l13.5 0 0.3 -2.7 c0.5 -4.1 -2.6 -5.2 -14.8 -5.3 -5.8 0 -11.7 0.3 -13.3 0.8 -3.8 1.1 -7.7 -2.8 -7.7 -7.7 0 -4.3 4.4 -9.8 9.2 -11.6 1.8 -0.6 4.2 -1.6 5.2 -2.2 1.1 -0.6 5.6 -1.2 10 -1.5 9.5 -0.7 11.6 -1.5 11.6 -4.8 0 -3 -2.2 -3.7 -9.8 -3.4 l-5.7 0.3 -0.8 -6.8 c-0.8 -6.8 0 -9.6 2.7 -9.6 0.7 0 5.9 3.1 11.7 6.8 23.5 15.4 34.3 33.4 34.2 57.2 0 11.4 -1.8 20.2 -5.8 28 -3.4 6.7 -12.4 14.6 -18.7 16.5 -6.1 1.8 -17.5 1.8 -23.8 0.1z"/>
  <path d="M474.2 229.2 c-4.5 -3.9 -3.6 -10.9 1.7 -13.7 4 -2 5.1 -1.9 8.6 0.9 6.1 4.9 2.7 14.5 -5.1 14.6 -1.7 0 -4 -0.8 -5.2 -1.8z"/>
  <path d="M886 217 c-2.9 -2.7 -3.2 -3.5 -2.7 -6.8 0.8 -4.5 3.8 -7.2 8.2 -7.2 4.9 0 7.5 2.8 7.5 8.2 0 8.4 -6.9 11.5 -13 5.8z"/>
  <path d="M463.5 209.2 c-0.6 -0.4 -1.9 -2 -2.9 -3.5 -2 -3.2 -1.8 -10 0.4 -17.2 2.3 -7.3 2.3 -12.7 0.1 -16.2 -1.9 -3 -2.5 -3.3 -7.3 -3.3 -4.1 0 -6 0.6 -8.3 2.4 -2.7 2.2 -3 2.9 -3.5 10.6 -0.4 7.4 -0.8 8.5 -3.1 10.2 -8.1 6 -14.3 -7.1 -8.8 -18.7 3.9 -8.4 11.5 -14.1 22.4 -17 4.8 -1.2 6.1 -1.2 10.3 0.1 5.4 1.6 7.9 3.5 11.3 8.4 3.2 4.7 3.3 14 0.1 22.3 -1.7 4.5 -2.1 7.5 -2 13.3 0.2 5.7 0 7.7 -1.2 8.4 -1.8 1.1 -6.1 1.3 -7.5 0.2z"/>
  <path d="M902 197.7 c-1.7 -0.9 -2.6 -2.2 -2.8 -4.4 -0.7 -7 3.8 -10.1 17.6 -11.9 10.5 -1.4 13.7 -3 15.9 -8.1 1.2 -3 1.2 -4.1 0.2 -6.7 -1.7 -4.1 -2.8 -5.1 -7.2 -6.7 -3.3 -1.2 -4.3 -1.1 -8.5 0.5 -10.1 4 -14.2 3 -14.2 -3.7 0 -5.9 6.5 -9.7 16.5 -9.7 7.9 0 12.5 2.1 19.7 8.8 6.6 6.2 8.1 9.3 8.2 17.2 0.1 5.6 -0.3 7.1 -2.8 10.8 -4.2 6.2 -10 8.8 -20.6 9.4 -6.7 0.4 -9.5 1 -13.5 3.1 -5.8 3.1 -5.3 3 -8.5 1.4z"/>
  <path d="M780.2 167.8 c-0.7 -0.7 -1.2 -2.6 -1.2 -4.3 0 -3.9 1.6 -5.5 5.5 -5.5 3.9 0 5.5 1.6 5.5 5.5 0 1.7 -0.5 3.6 -1.2 4.3 -1.6 1.6 -7 1.6 -8.6 0z"/>
  <path d="M843.5 152.5 c-5.5 -5.4 -2 -13.5 5.6 -13.5 4.9 0 7.9 3 7.9 8 0 7.3 -8.4 10.7 -13.5 5.5z"/>
  <path d="M506.5 151 c-3.6 -4 -1.5 -10 3.5 -10 4.9 0 6 0.9 6 5 0 6.2 -5.6 9.3 -9.5 5z"/>
  <path d="M786.3 150.3 c-0.7 -0.2 -1.3 -1.8 -1.3 -3.5 0 -3.7 5 -8.8 11.5 -11.8 5.4 -2.5 8.5 -6.3 8.5 -10.5 0 -4.5 -2.6 -6.5 -8.7 -6.5 -4.3 0 -5.3 0.4 -7.6 3 -6 6.7 -13.2 0.8 -7.7 -6.3 5.1 -6.4 18 -7.4 26.6 -2.1 11 6.8 11.6 20.2 1.1 26.5 -2.3 1.4 -5.5 2.9 -7 3.3 -1.5 0.3 -4.5 2.4 -6.7 4.6 -3.8 3.8 -5.8 4.5 -8.7 3.3z"/>
  <path d="M502.6 131.8 c-2.5 -3.5 -1.9 -7 2.2 -13.4 5.9 -9.2 6.7 -11.6 4.8 -15.2 -1.7 -3.3 -3.3 -4.2 -8 -4.2 -3.3 0 -8.6 4.2 -8.6 6.9 0 0.6 -0.7 2.5 -1.5 4.1 -1.8 3.6 -5.3 4 -8 1 -1.6 -1.8 -1.6 -2.4 -0.5 -6.6 2.5 -8.7 9.9 -13.5 21 -13.6 10.1 -0.1 14.2 2.7 17 11.5 1.4 4.5 0 8.9 -5.4 16.4 -1.8 2.6 -3.7 6.4 -4.1 8.3 -0.4 1.9 -1.1 4.3 -1.7 5.3 -1.2 2.4 -5.4 2.1 -7.2 -0.5z"/>
  <path d="M852 129 c-2.4 -2.4 -2.5 -5.1 -0.5 -9 1.9 -3.8 5.4 -6.1 14.8 -10 5.9 -2.4 8.4 -4.1 9.8 -6.4 4.7 -7.8 -0.4 -15.6 -10.2 -15.6 -3.5 0 -5.1 0.7 -9 4 -7.5 6.3 -13.3 5.1 -13.3 -2.8 0 -2.9 0.8 -4.2 4.3 -7.4 5.3 -4.7 10.6 -6.2 19 -5.4 14.5 1.3 26.1 11.9 26.1 24 0 4.2 -3.9 11.4 -7.9 14.5 -2 1.5 -7 4.1 -11.1 5.6 -4.5 1.7 -9 4.3 -11.6 6.7 -4.6 4.3 -7.4 4.8 -10.4 1.8z"/>
 </g>
 <g fill="#f9d03d">
  <path d="M639.2 685.7 c-4.8 -5.1 -6.3 -14.6 -3.8 -23.1 2.1 -7 4 -8.6 9.7 -8.6 4.4 0 5 0.3 6.4 3.1 5.3 10.2 0.4 30.9 -7.3 30.9 -1.7 0 -3.7 -1 -5 -2.3z"/>
  <path d="M739.9 685.9 c-4.2 -4.2 -6.1 -10.8 -5.7 -19.1 0.6 -10.4 2.2 -12.8 8.8 -12.8 4 0 5.2 0.4 6.9 2.6 2.4 3 3.5 7.9 3.6 14.9 0 6.6 -1 9.7 -4.1 13.4 -3 3.6 -6.5 4 -9.5 1z"/>
  <path d="M615.4 684.5 c-1.4 -1.4 -3.2 -4.1 -4 -6 -1.7 -4 -1.9 -17.1 -0.3 -21.2 2.6 -7 13 -10.1 16.5 -4.8 1.5 2.2 1.5 3 -0.1 9.2 -1.2 4.8 -1.5 8.5 -1 13 0.6 5.5 0.4 6.7 -1.5 9.3 -2.7 3.7 -6.2 3.9 -9.6 0.5z"/>
  <path d="M764.8 685.4 c-3.3 -1.7 -3.6 -2.9 -4.2 -15.4 -0.3 -5.2 -0.8 -11.1 -1.1 -13.1 -0.6 -3.1 -0.3 -3.9 2 -5.8 4.1 -3.1 9.6 -2.9 12.1 0.7 2.5 3.3 4.4 10.5 4.4 16.6 0 8.3 -5.3 18.7 -9.5 18.6 -0.5 -0.1 -2.2 -0.7 -3.7 -1.6z"/>
  <path d="M593.4 682.3 c-5.6 -6.1 -6.8 -20.6 -2.3 -27.9 2.7 -4.4 8.1 -5.6 11.1 -2.6 1.8 1.8 1.9 2.4 0.8 5.7 -1.5 4.6 -1.6 17 -0.1 20.9 2.4 6 -4.8 9 -9.5 3.9z"/>
  <path d="M786.1 683.2 c-2 -1.6 -2.1 -2.1 -1.2 -6.2 1.4 -5.9 1.4 -13.1 0 -18.6 -1.5 -5.7 -0.2 -7.4 5.7 -7.4 3.8 0 4.5 0.4 5.8 2.9 4.4 8.3 4 19.9 -0.9 27.3 -2.8 4.3 -5.9 4.9 -9.4 2z"/>
  <path d="M698.6 371.4 c-0.9 -0.8 -1.6 -2.5 -1.7 -3.7 0 -1.2 -0.3 -4.2 -0.6 -6.6 -0.4 -3.7 -0.3 -4.3 1 -3.8 1.1 0.4 1.4 0.2 1 -0.9 -0.9 -2.5 4 0 5.4 2.7 1.7 3.3 1.6 6.4 -0.3 10.5 -1.8 3.8 -2.6 4.1 -4.8 1.8z"/>
 </g>
 <g fill="#90def5">
  <path d="M669 666.1 l-7.5 -0.6 -0.7 -4.2 c-1.7 -10.3 -7.6 -16.3 -15.8 -16.3 -2.5 0 -5.8 0.7 -7.4 1.5 -2.7 1.5 -3 1.4 -6.7 -2 -3.6 -3.2 -4.4 -3.5 -10.3 -3.5 -5.4 0 -6.9 0.4 -9.4 2.5 l-3 2.5 -3.7 -2.1 c-4.5 -2.7 -11.5 -2.2 -14.9 1 -1.2 1.1 -2.6 2.1 -3.2 2.1 -1.8 0 -11.2 -14.6 -15.2 -23.6 -23.8 -53.3 -0.5 -120.9 52.8 -153.8 7.3 -4.6 9.6 -4.9 8.7 -1.5 -0.3 1 -0.1 3.5 0.3 5.6 0.5 2.1 1.1 7.3 1.4 11.6 0.3 4.2 0.8 8.7 1.1 10 0.3 1.2 0.7 5.1 0.9 8.7 0.2 3.6 1.1 12.8 2 20.5 0.8 7.7 1.8 16.7 2.1 20 0.3 3.3 0.7 7.3 1 9 0.3 1.6 0.7 5.7 1 9 0.3 3.3 0.9 9.4 1.4 13.5 0.5 4.1 0.8 7.8 0.5 8.1 -0.2 0.3 0.1 2.1 0.6 4 0.5 1.9 1.1 7.1 1.4 11.7 0.3 4.5 0.7 8.6 1 9 0.3 0.5 0.6 3.6 0.7 7.1 0.2 5.4 0.6 6.5 2.6 7.9 2.6 1.6 0.3 1.7 41.3 -1.9 5.2 -0.4 13.3 -1.3 18 -1.9 4.7 -0.6 12.8 -1.5 18 -2 5.2 -0.5 13.8 -1.4 19 -1.9 5.2 -0.5 13.6 -1.5 18.5 -2 5 -0.6 13.5 -1.5 19 -2.1 5.5 -0.5 10.7 -1.1 11.5 -1.4 0.8 -0.2 7.4 -0.7 14.5 -1 l13 -0.6 -2.6 2.2 c-1.4 1.3 -3.6 4.8 -4.9 7.8 -3.7 9 -8 17.2 -11.6 22.1 -2.7 3.7 -3.1 4.8 -2.1 5.9 0.7 0.8 -0.5 0.1 -2.6 -1.4 -5.1 -3.8 -10.2 -4.4 -15.9 -1.9 l-4.4 2 -3 -2.4 c-2.5 -2.1 -3.7 -2.4 -9.6 -2.1 -6.1 0.3 -7.1 0.7 -10.2 3.7 -3.3 3.2 -3.4 3.2 -6.4 1.7 -4.6 -2.4 -11.2 -2 -15.3 0.7 -4.1 2.7 -7.6 8.7 -8.5 14.3 -0.6 4.1 -0.6 4.1 -5.7 4.8 -6.1 0.7 -40.9 0.5 -51.7 -0.3z"/>
  <path d="M760.7 408.5 c-8.7 -1.8 -13 -3.1 -18.9 -5.7 -4.7 -2.1 -4.8 -2.1 -6.9 -0.2 -2.2 1.9 -2.2 1.9 -0.8 -0.3 1.1 -1.9 1.1 -3 -0.1 -7 -0.7 -2.6 -1.6 -7.5 -1.9 -10.8 -0.6 -5.9 -0.7 -6 -3.6 -6 -2.2 0 -3.3 0.6 -4 2.3 -0.6 1.2 -1.6 2 -2.3 1.7 -0.8 -0.3 -1.7 -0.5 -2.2 -0.5 -0.5 0 -0.4 -1.5 0.1 -3.2 1.4 -4.9 1.1 -12.8 -0.7 -18.8 -2.2 -7.3 -10.7 -15.9 -18.3 -18.5 -6.5 -2.1 -14.4 -1.6 -21.1 1.3 -6 2.6 -13.6 9.4 -16.2 14.6 -2.9 5.7 -3.6 16.9 -1.4 23.5 0.9 2.7 1.6 5.2 1.6 5.5 0 0.5 -6.6 3.6 -7.5 3.6 -0.2 0 -0.6 -1.1 -0.9 -2.4 -0.6 -2.5 -3.8 -4.2 -5.6 -3.1 -0.5 0.3 -1 2.1 -1 3.9 0 5.5 -2.7 13.2 -4.7 13.3 -1 0.1 -5.8 1.6 -10.8 3.4 -7.7 2.7 -10.7 3.3 -21.1 3.7 -33.6 1.3 -59.4 -13.8 -73.8 -43.1 -6.9 -14.3 -8.9 -22.8 -8.9 -37.7 0.1 -31.8 16.8 -59.7 43.8 -73.3 13.7 -6.8 30.4 -9.8 44.1 -7.7 31 4.5 57.5 22.8 70.9 48.9 l1.7 3.4 3.7 -7 c11.4 -21.6 30.7 -36.4 56.1 -42.9 29.6 -7.6 58.4 0.4 78.5 21.8 6.1 6.5 8.7 10.3 13 19.2 7.1 14.4 9.5 23.9 9.5 37.2 0 33 -16.2 60 -44.5 74 -13.6 6.7 -32.6 9.6 -45.8 6.9z m-105.7 -45.4 c1.2 -2.3 0.5 -4.7 -1.6 -5.5 -1.2 -0.5 -1 -1.4 1 -5.4 8.8 -17.3 8.8 -31.4 0.2 -47.9 -6.1 -11.5 -16.9 -21.2 -28.3 -25.5 -3.2 -1.2 -6.2 -2.4 -6.6 -2.8 -0.4 -0.4 1.3 -2.9 3.8 -5.6 5.4 -5.8 5.9 -9.7 1.2 -10.2 -2.3 -0.3 -3.6 0.6 -7.3 4.7 -5.2 5.8 -15.1 12.5 -24.1 16.5 -6.9 3 -23.8 6.6 -30.8 6.6 -4 0 -4.5 0.3 -5.1 2.7 -0.9 3.3 1.8 5.6 5.8 5 3.9 -0.5 3.7 1.7 -1.2 11.6 -5.7 11.5 -6.8 19.2 -4.5 30.2 1 4.7 2.2 8.8 2.6 9.1 1.4 0.8 1 3.4 -0.4 3.4 -0.8 0 -2.4 1.1 -3.7 2.5 -2 2.1 -2.1 2.7 -1 4.1 1.1 1.2 2.5 1.4 5.9 1.1 36.9 -4.2 59.9 -2.9 81.6 4.7 8.6 3 11.1 3.2 12.5 0.7z m82 -0.7 c1.9 -0.4 4.2 -1.2 5 -1.9 2.2 -1.7 9.1 -3.5 13.5 -3.5 3.9 0 11.2 -1.8 13 -3.1 2.4 -1.8 20.1 -3.1 38 -2.7 l19 0.3 0.3 -2.8 c0.3 -2.2 -0.1 -3 -1.8 -3.4 -2 -0.5 -2.2 -1 -1.6 -4.7 1.7 -10.6 1.8 -17.3 0.2 -23.3 -1.8 -7.2 -7.3 -18.6 -11 -23 -1.6 -1.9 -2.6 -4.3 -2.6 -6.2 0 -2.9 0.3 -3.1 3.4 -3.1 1.9 0 4.2 -0.7 5 -1.6 1.9 -1.8 1.9 -2 0.6 -4.5 -1 -1.7 -2.2 -1.9 -12.3 -1.9 -14.3 0 -25 -2.5 -36.6 -8.5 -4.7 -2.4 -11 -6.5 -13.8 -9 -6 -5.3 -9.6 -5.8 -10.1 -1.4 -0.2 2.1 0.8 3.6 4.8 7.2 2.8 2.5 7.1 5.8 9.5 7.4 2.5 1.5 4.5 3.1 4.5 3.4 0 0.4 -1.7 0.9 -3.7 1.3 -7.8 1.2 -23 10.7 -29.1 18.1 -6.9 8.5 -12.7 25.7 -11.6 34.9 0.8 6.6 3 13.7 6.5 20.8 2.3 4.6 2.6 5.7 1.4 6.2 -1.8 0.7 -1.9 3.7 -0.2 5.5 0.7 0.7 2.3 1 3.7 0.7 1.4 -0.4 4.1 -0.9 6 -1.2z"/>
 </g>
 <g fill="#e0dfe0">
  <path d="M730 608.3 c0 -1.2 0.7 -2.6 1.5 -3.3 0.8 -0.7 1.5 -1.9 1.5 -2.8 0 -1.3 1.1 -1.4 7.3 -0.8 3.9 0.3 10.9 0.9 15.5 1.3 5.6 0.4 8.2 1 8.2 1.9 0 1.5 -2.6 2.1 -15.5 3.4 -5.5 0.5 -11.9 1.3 -14.2 1.6 -3.9 0.6 -4.3 0.5 -4.3 -1.3z"/>
  <path d="M667 605 c0 -1.7 0.7 -4.2 1.6 -5.5 1.3 -2 2.5 -2.5 5.9 -2.5 4.6 0 5.5 0.9 5.5 6 0 3.6 -2.3 5 -8.4 5 -4.5 0 -4.6 -0.1 -4.6 -3z"/>
  <path d="M754.7 600.3 c-0.4 -0.3 -0.7 -2.6 -0.7 -5 l0 -4.4 4.3 0.3 c3.5 0.3 4.3 0.7 4.5 2.7 0.2 1.2 0.1 3.4 -0.2 4.7 -0.5 1.9 -1.3 2.4 -4 2.4 -1.8 0 -3.6 -0.3 -3.9 -0.7z"/>
  <path d="M847 594.6 c0 -5.5 5.3 -7.3 11.8 -4 3.6 1.7 5.2 1.2 5.2 -1.7 0 -2 0.4 -2 11.3 -1.3 l11.2 0.6 -0.3 -7.6 -0.4 -7.6 5.1 0 c4.4 0 5.1 0.3 5.1 2 0 1.1 0.5 2 1 2 0.6 0 1 1.6 1 3.5 0 2.4 -0.5 3.5 -1.5 3.5 -0.8 0 -1.5 0.9 -1.5 2 0 1.7 0.7 2 5 2 3.7 0 5 0.4 5 1.5 0 0.8 -1.3 1.6 -3.2 1.9 -4.1 0.5 -38.3 4.3 -46 5.1 -3.1 0.3 -6.3 0.8 -7.2 1.1 -1.3 0.5 -1.6 -0.1 -1.6 -3z"/>
  <path d="M789 592.4 c0 -4.9 0.8 -6.1 4.5 -7 1.7 -0.4 4.4 -1.8 6.2 -3.1 2.2 -1.7 4.2 -2.3 6.5 -2.1 3.1 0.3 3.3 0.5 3.3 4.3 0 3.6 -0.3 4 -2.7 4.3 -1.9 0.2 -2.8 0.9 -2.8 2.1 0 2.9 -2.2 4 -8.9 4.7 l-6.1 0.7 0 -3.9z"/>
  <path d="M766.8 592.3 c-2.3 -0.4 -2.8 -0.9 -2.8 -3.4 0 -2.4 -0.4 -2.9 -2.5 -2.9 -2.2 0 -2.5 -0.4 -2.5 -4 0 -3.7 0.2 -3.9 3.4 -4.5 4.9 -1 7.1 -0.3 7.4 2.3 0.2 1.2 0.8 2.2 1.4 2.2 1.9 0 4.7 4.5 4.8 7.8 0 3 -0.2 3.2 -3.2 3.1 -1.8 -0.1 -4.5 -0.4 -6 -0.6z"/>
  <path d="M689.6 591.3 c-2.8 -0.5 -2.9 -0.5 -2.3 -5.6 0.4 -2.8 1 -5.3 1.5 -5.6 0.5 -0.3 1.2 -1.6 1.6 -2.8 0.4 -1.3 1.3 -2.3 2.1 -2.3 0.7 0 1.5 -0.7 1.9 -1.5 0.3 -0.8 1.5 -1.5 2.6 -1.5 1.6 0 2 -0.7 2 -3 0 -2.5 0.4 -3 2.5 -3 1.4 0 2.5 -0.4 2.5 -1 0 -1.5 6.7 -1.2 7.3 0.3 0.3 0.6 0.6 0.2 0.6 -1 0.1 -2.1 0.6 -2.3 5.5 -2.3 l5.3 0 0.8 4.3 c0.5 2.3 0.8 6.5 0.8 9.4 0 4.5 0.3 5.2 2.1 5.5 2.8 0.4 3.5 6.1 1.1 8.5 -1.4 1.3 -2.7 1.5 -8.3 0.7 -5.9 -0.8 -6.7 -1.2 -7.3 -3.4 l-0.7 -2.5 -0.1 2.6 c-0.1 2.4 -0.5 2.6 -7.8 3.7 -7.9 1.2 -8.5 1.2 -13.7 0.5z"/>
  <path d="M673.8 588.5 c-0.6 -1.4 -1.5 -2.5 -2 -2.5 -1.6 0 -0.9 -6.8 0.8 -7.4 2.9 -1.1 7.5 -0.6 8 0.9 0.4 0.8 1.2 1.5 2 1.5 0.8 0 1.4 0.7 1.4 1.5 0 0.8 0.5 1.5 1 1.5 0.6 0 1 1.6 1 3.5 l0 3.5 -5.5 0 c-4.9 0 -5.7 -0.3 -6.7 -2.5z"/>
  <path d="M902 583.6 c0 -3.7 2.1 -6.6 4.7 -6.6 1.2 0 1.3 -0.3 0.4 -1.4 -0.7 -0.8 -1.1 -3 -0.9 -4.8 l0.3 -3.3 7 -0.3 c10.5 -0.5 11.5 0 11.5 5.1 0 3.9 -0.3 4.3 -3.9 6 -2 0.9 -4.3 1.7 -4.9 1.7 -0.7 0 -1.2 1 -1.2 2.1 0 3.2 -2.9 4.8 -8.2 4.9 -4.8 0 -4.8 0 -4.8 -3.4z"/>
  <path d="M649.5 553.8 c-0.3 -1.8 -1.4 -12.3 -2.5 -23.3 -1.1 -11 -3.4 -33 -5.1 -49 -1.6 -15.9 -3.1 -31 -3.2 -33.5 l-0.2 -4.5 7.3 -0.3 c7.1 -0.3 7.2 -0.3 7.2 2.3 0 1.9 -0.5 2.5 -2 2.5 -1.2 0 -3 0.9 -4.2 1.9 -2 1.9 -2 2.3 -0.9 12.8 0.7 5.9 1.7 15 2.2 20.2 0.6 5.2 1.3 9.9 1.7 10.5 0.4 0.6 0.7 5.4 0.8 10.6 0 5.2 0.6 14.2 1.3 20 0.6 5.8 1.4 15.6 1.8 21.8 0.5 10.8 0.4 11.2 -1.5 11.2 -1.6 0 -2.2 -0.8 -2.7 -3.2z"/>
  <path d="M892 543.5 c-3 -0.7 -7 -1.4 -8.7 -1.4 -2.7 -0.1 -3.4 -0.6 -3.9 -2.8 -0.4 -1.5 -1.8 -3.6 -3.1 -4.6 -1.3 -1 -2.3 -2.5 -2.3 -3.3 0 -0.8 -0.9 -1.4 -2.1 -1.4 -1.8 0 -2 -0.5 -1.7 -4.2 l0.3 -4.3 6.7 -0.3 c6 -0.3 6.7 -0.1 7.3 1.8 0.7 2.1 0.7 2.1 3 -0.4 1.8 -2 3.4 -2.6 6.5 -2.6 3.9 0 4 0.1 4 3.4 0 2 -0.8 4.2 -1.7 5.2 -1.3 1.3 -1.4 1.9 -0.5 2.2 0.6 0.2 1.2 1.3 1.2 2.3 0 2.6 1.6 5.8 4.8 9.2 l2.6 2.7 -3.5 -0.1 c-1.9 -0.1 -5.9 -0.7 -8.9 -1.4z"/>
  <path d="M676 539.6 c0 -6.3 1.1 -8.5 4.6 -9.2 3.4 -0.6 4.3 -1.7 2.4 -2.9 -1.7 -1 -1.1 -6.4 0.9 -8.4 1.2 -1.2 4 -2.1 8.3 -2.5 4.7 -0.5 6.8 -1.2 7.8 -2.7 1.1 -1.5 2.6 -1.9 6.7 -1.9 5 0 5.3 0.2 5.3 2.5 0 1.3 0.6 3 1.4 3.7 1.1 1.1 1.1 1.6 -0.2 3.6 -0.9 1.4 -1.3 3.5 -0.9 5.7 0.5 3.3 0.4 3.5 -2.4 3.5 -1.9 0 -2.9 -0.5 -2.9 -1.5 0 -0.8 -0.4 -1.5 -0.9 -1.5 -0.5 0 -1.6 -0.3 -2.5 -0.6 -1.3 -0.5 -1.6 0.2 -1.6 4 l0 4.6 -3.9 0 c-3.5 0 -3.9 0.3 -4.4 3 l-0.6 3 -8.6 0 c-8.3 0 -8.5 -0.1 -8.5 -2.4z"/>
  <path d="M747 528.3 c0.1 -5.8 3.2 -7.6 11.6 -6.8 l6.6 0.7 -3.3 3.4 c-2.3 2.4 -4.2 3.4 -6.3 3.4 -1.7 0 -4 0.7 -5 1.5 -3 2.3 -3.6 1.8 -3.6 -2.2z"/>
  <path d="M717.3 513.3 c-1.9 -0.7 -1.6 -5.6 0.5 -9.2 1.5 -2.7 2.2 -3.1 5.2 -2.9 3 0.3 3.5 0.7 3.8 3.2 0.3 2.1 -0.5 3.7 -2.9 6.2 -3.2 3.4 -4.2 3.7 -6.6 2.7z"/>
  <path d="M666.3 493.8 c-2.6 -0.9 -3.3 -1.6 -3.3 -3.7 0 -4.6 1.1 -7.1 3.1 -7.1 1.3 0 1.9 -0.7 1.9 -2.4 0 -2.5 1.1 -2.9 10.3 -4.3 4.2 -0.6 4.3 -0.8 2.1 -3 -1 -1 -1.4 -2.9 -1.2 -5.7 l0.3 -4.1 5.5 -0.2 c3 -0.2 7.9 -0.5 10.8 -0.9 4.8 -0.5 5.2 -0.8 5.2 -3.1 l0 -2.6 7.2 0.6 c4 0.4 7.4 1.1 7.6 1.7 0.2 0.5 1.1 1 1.9 1 1.4 0 1.4 0.2 0 1.8 -2.3 2.5 -2.1 6.5 0.3 8.7 2.7 2.4 2.6 3 -1.4 5.4 -4.2 2.6 -4.4 2.6 -4.8 -0.1 -0.2 -1.8 -1 -2.4 -3.8 -2.6 l-3.6 -0.3 0.4 4.2 c0.3 3.1 0 4.4 -1.2 5.1 -0.9 0.5 -1.6 1.8 -1.6 2.9 0 1.7 -0.6 2 -3.7 1.7 -2.8 -0.2 -4.1 -0.9 -5 -2.8 -1.2 -2.4 -1.3 -2.5 -1.3 -0.2 0 2 -0.5 2.2 -4.5 2.2 -3.5 0 -4.7 0.4 -5.1 1.8 -2.4 7.2 -2.3 7.2 -7.8 7.1 -2.8 -0.1 -6.6 -0.6 -8.3 -1.1z"/>
  <path d="M875.7 486.2 c-2.1 -4.7 -2.1 -5.2 -0.2 -5.2 0.8 0 1.5 -0.9 1.5 -2 0 -1.1 -0.4 -2 -1 -2 -0.5 0 -1 -1.6 -1 -3.5 0 -1.9 0.5 -3.5 1 -3.5 0.6 0 1 -0.9 1 -2 0 -1.1 0.7 -2 1.5 -2 1 0 1.5 -1 1.5 -3.4 0 -5.4 0.8 -6.6 4.5 -6.6 3.9 0 5.1 1.2 6.1 6.5 0.4 2.2 1 4.2 1.4 4.5 0.4 0.3 0.9 3.8 1.2 7.8 l0.5 7.2 -2.8 0 c-1.6 0 -3 -0.6 -3.1 -1.2 0 -0.7 -0.4 1 -0.7 3.7 l-0.6 5 -4.5 0.3 c-4.4 0.3 -4.6 0.2 -6.3 -3.6z"/>
  <path d="M783.4 482.8 c0.3 -1.7 1.3 -3.9 2.1 -4.8 0.8 -0.9 1.5 -3.1 1.5 -4.8 l0 -3.2 8.5 0 8.6 0 -6.1 8 c-6.1 7.9 -6.1 8 -10.7 8 l-4.5 0 0.6 -3.2z"/>
  <path d="M736.2 457.7 c-4.1 -4.2 -4.2 -4.3 -2.2 -6 1.1 -0.9 3.3 -1.7 4.9 -1.7 2.5 0 3.1 0.6 4.1 3.5 0.9 2.7 1.7 3.5 3.6 3.5 3.5 0 2.9 2.4 -0.9 3.8 -4.7 1.7 -4.8 1.7 -9.5 -3.1z"/>
  <path d="M905.9 447.8 c-0.1 -4.6 -0.2 -11.2 -0.3 -14.8 -0.1 -6.3 -0.2 -6.5 -2.8 -6.8 -2.3 -0.3 -2.8 0.1 -2.8 1.7 0 1.6 -0.6 2.1 -2.5 2.1 -1.5 0 -2.5 0.6 -2.5 1.4 0 2.1 -3.4 2.9 -9.1 2.1 -3.3 -0.5 -4.9 -0.3 -4.9 0.4 0 1.6 -5.9 1.3 -7.6 -0.3 -2.1 -2.2 -1.8 -7.3 0.6 -8.8 1.1 -0.7 2 -2 2 -2.9 0 -2.2 5 -3.9 11.4 -3.9 2.8 0 8.9 -0.5 13.5 -1 4.6 -0.6 8.5 -0.9 8.7 -0.7 0.3 0.2 1.1 7.3 1.9 15.8 0.8 8.5 1.7 16.7 2 18.2 0.4 2.5 0 3 -3 4.3 -1.9 0.8 -3.6 1.4 -3.9 1.4 -0.2 0 -0.5 -3.7 -0.7 -8.2z"/>
  <path d="M741.3 444 c-1.9 -0.8 -2.3 -1.7 -2.3 -5 l0 -4 4.3 0 c5.3 0 6.7 1.3 6.7 6.2 0 3.6 -0.1 3.8 -3.2 3.7 -1.8 0 -4.3 -0.4 -5.5 -0.9z"/>
 </g>
 <g fill="#dfe2e1">
  <path d="M656 616.3 c0 -0.4 -1.4 -13.6 -3 -29.2 -2 -19.4 -2.8 -30.5 -2.4 -35.2 0.4 -3.8 0.2 -10.1 -0.4 -14.1 -0.7 -4 -1.4 -10 -1.6 -13.3 -0.3 -3.3 -0.7 -7.3 -1 -9 -1.2 -6.7 -1.4 -18.5 -0.2 -17.8 0.6 0.3 0.4 -0.2 -0.5 -1.3 -1.2 -1.3 -1.7 -4 -1.8 -9.3 -0.1 -4 -0.4 -7.8 -0.7 -8.3 -0.3 -0.5 -0.8 -3.3 -1 -6.1 -0.2 -2.9 -0.6 -7.4 -0.9 -10.2 -1.5 -12.1 -1.6 -15.7 -0.6 -15 0.6 0.3 1.1 0.1 1.1 -0.5 0 -0.6 0.4 -0.8 1 -0.5 0.5 0.3 1 0.1 1 -0.4 0 -0.6 1.2 -1.1 2.6 -1.1 1.4 0 2.3 -0.4 1.9 -1 -0.3 -0.6 0.4 -1 1.7 -1.1 4.3 -0.1 25.3 -2 33.3 -3 11.7 -1.4 23.3 -2.6 38 -3.8 7.2 -0.6 16.4 -1.6 20.5 -2.2 10.1 -1.5 30.1 -3.7 52.5 -5.9 5.5 -0.5 13.8 -1.4 18.5 -2 4.7 -0.5 13.7 -1.4 20 -2 6.3 -0.5 15.3 -1.5 20 -2 4.7 -0.6 12.3 -1.5 17 -2 4.7 -0.6 10.5 -1.3 12.9 -1.6 3.4 -0.5 4.2 -0.3 3.8 0.7 -0.2 0.8 -1.1 1.3 -1.8 1.1 -0.9 -0.2 -1.1 0 -0.4 0.6 1.9 1.8 6.5 2.4 6.5 0.8 0 -0.7 0.8 -2 1.7 -2.7 1.5 -1.2 1.6 -1.2 0.8 0.1 -0.8 1.3 -0.6 1.3 0.8 0.1 1.4 -1.1 1.8 -1.1 2.3 0.3 0.3 0.9 1.3 1.6 2.1 1.6 0.8 0 1.1 0.5 0.8 1 -0.4 0.7 0.5 0.9 2.5 0.5 4.4 -0.8 6.5 1.1 6.5 6 0 2.2 -0.4 4.6 -0.8 5.3 -0.6 0.8 -0.4 1.1 0.4 1 1.4 -0.3 1.9 1.9 1 3.7 -0.9 1.7 -0.8 7.9 0.2 9.2 0.5 0.7 0.7 1.9 0.4 2.7 -0.4 1 0 1.2 1.4 0.9 1 -0.3 1.9 0 1.9 0.6 0 0.5 -0.6 0.8 -1.3 0.5 -0.7 -0.2 -2.2 0.4 -3.2 1.6 -1 1.1 -2.4 2 -3 2 -2.5 0 -11.4 9 -12.6 12.8 -0.6 2 -1.7 4 -2.3 4.4 -1.3 0.9 -4.8 -4.2 -4.1 -6 0.7 -2 -0.3 -3.2 -2.1 -2.5 -1.2 0.4 -1.3 0.8 -0.3 1.3 2.2 1.4 0.2 4.1 -2.7 3.6 -2.5 -0.5 -2.6 -0.5 -0.9 1.4 1.8 1.9 1.7 2 -0.9 2 -2.2 0 -2.4 0.3 -1.5 1.3 1.2 1.3 2.5 1.5 8.9 2 1.7 0.1 3 0.8 3 1.5 0 0.7 0.5 1 1 0.7 0.6 -0.3 1.5 0.6 2.1 2.2 0.6 1.5 1.7 3.5 2.6 4.5 1.3 1.5 1.2 1.8 -1.1 3.3 -3.3 2.2 -7.6 10.9 -7.6 15.4 0 5.2 3.6 11.7 7.8 14.2 2 1.3 3.8 2.3 4 2.4 0.1 0.1 -0.5 1.8 -1.3 3.8 -1.8 4.4 -2 11.8 -0.3 13.5 0.9 0.9 0.9 1.2 0 1.2 -0.6 0 -1.4 -1.1 -1.8 -2.5 -0.3 -1.4 -1 -2.3 -1.4 -2 -1.4 0.9 1.3 6.5 3.1 6.5 1 0 3.1 1.1 4.7 2.5 3.7 3.1 12.4 7.1 17.5 8 2 0.4 3.7 1 3.8 1.4 0 0.3 0.3 2.9 0.5 5.6 0.2 2.8 1 10.3 1.7 16.9 l1.3 11.8 -2.4 1.6 c-2.1 1.4 -6.5 1.6 -30.2 1.7 -15.3 0 -27.6 0.4 -27.3 0.8 0.3 0.4 -0.1 1.4 -0.7 2.2 -1.6 1.9 -7.7 1.9 -11.1 0.1 -2.6 -1.3 -6.5 -0.4 -5.4 1.3 0.2 0.5 -0.1 1.3 -0.8 1.8 -1.1 0.9 -21.8 3.3 -45.7 5.4 -5.2 0.4 -13.8 1.4 -19 2.1 -9.3 1.3 -36.4 1.7 -44.7 0.6 -3 -0.3 -4.3 -0.1 -4.3 0.7 0 2.3 -3.6 4.3 -9 4.9 -6.5 0.7 -20.6 2.2 -34 3.4 -5.2 0.5 -10.2 1.2 -11 1.5 -2.5 0.9 -26 1.8 -26 1z m19.6 -12.8 c1.2 -0.9 1.4 -1.4 0.6 -1.5 -0.7 0 -1 -0.5 -0.6 -1.1 0.4 -0.7 0 -1 -1 -0.7 -1 0.1 -1.6 0.6 -1.4 1 0.2 0.4 -0.6 1.4 -1.7 2.2 -2 1.5 -2 1.5 0.1 1.6 1.1 0 2.9 -0.7 4 -1.5z m83.4 -8.9 c-1.4 -1.4 -2.4 0 -1.6 2.1 0.6 1.5 0.8 1.5 1.6 0.3 0.6 -0.9 0.5 -1.9 0 -2.4z m35.4 -2.3 c0.4 -0.5 1.7 -0.8 2.8 -0.8 1.1 0 2.6 -0.8 3.2 -1.8 0.9 -1.5 0.7 -2.2 -1 -3.5 l-2 -1.6 2.8 -4.1 c4 -5.7 4.6 -11.2 1.9 -16.7 -2.8 -5.7 -6.3 -8.1 -12.5 -8.5 -6.2 -0.5 -11.1 1.8 -14.3 6.6 -3 4.4 -3.1 12.2 -0.3 16.8 2.4 4 8.7 7.3 13.9 7.3 3.2 0 4.1 0.4 4.7 2.2 0.4 1.3 0.2 2.4 -0.5 2.6 -1.3 0.4 -1.5 2.2 -0.3 2.2 0.5 0 1.2 -0.3 1.6 -0.7z m-48.8 -5.5 c1.7 -1.8 4.6 -5.5 6.6 -8.3 22.5 -32.1 31.4 -43 34.3 -42.3 0.8 0.2 11.8 10.1 24.6 22.1 18.4 17.2 23.7 21.7 25.9 21.7 3.4 0 13 -9.7 13 -13.1 0 -1.4 -3.1 -5.1 -9.5 -11.1 l-9.5 -9 2 -2.5 c1.1 -1.4 2 -3.7 2 -5.1 0 -5.3 -13.4 -14.2 -28.3 -18.8 -3.1 -1 -6.4 -2.5 -7.3 -3.5 -1.4 -1.5 -1.1 -2.1 2.9 -7 4 -4.9 4.7 -5.4 8.3 -5.3 5.1 0.1 18.5 6.5 27.9 13.3 10.1 7.4 15.7 6.7 17.2 -2.3 0.5 -3.4 0.2 -4 -3.9 -7.9 -6.2 -5.9 -19.7 -13.6 -31.1 -17.7 -2.4 -0.8 -2.6 -1.3 -1.7 -3 0.6 -1.1 2.6 -3.6 4.6 -5.5 2.8 -2.9 4.2 -3.5 7.5 -3.5 5.1 0 15.2 5.1 26.8 13.7 4.7 3.5 9.5 6.3 10.6 6.3 1.2 0 3.4 -1.3 5 -3 3.6 -3.7 3.7 -8 0.4 -11.6 -3.6 -3.9 -20.4 -14.8 -28.4 -18.5 -3.8 -1.8 -7.2 -3.3 -7.4 -3.5 -0.1 -0.1 0.4 -1.3 1.3 -2.6 2.7 -3.9 2 -6.3 -3.4 -10.8 -4.3 -3.6 -5.4 -4.1 -9.2 -3.8 -3.8 0.3 -4.6 0.8 -8 5.3 -3.6 4.7 -4 5 -7.5 4.5 -2.1 -0.3 -11.4 -0.5 -20.8 -0.5 -17 0.1 -28.9 1.6 -38.9 5.1 -2.1 0.8 -5.3 1.4 -7.1 1.4 -3 0 -3.5 -0.4 -4.6 -3.7 -0.8 -2.5 -1.4 -3.3 -1.8 -2.3 -0.7 1.8 -3.7 2.5 -4.6 1 -0.3 -0.5 -2.6 -1 -4.9 -1 -3.9 0 -4.7 0.4 -8 4.5 -3.4 4 -7.6 6 -7.6 3.6 0 -0.6 -0.8 -1 -1.7 -0.9 -1 0 -2.9 -0.3 -4.3 -0.6 -2.1 -0.4 -2.6 -0.2 -2.7 1.4 -0.1 1.1 0.3 2 0.8 2 0.6 0 0.7 -0.5 0.3 -1.2 -0.5 -0.8 -0.2 -0.9 1 -0.5 1 0.4 2.4 0.7 3.1 0.7 0.8 0 1.1 0.7 0.8 1.9 -0.3 1.3 0.2 2.3 1.5 3 1.2 0.6 2.3 2 2.7 3 0.3 1.1 1.4 2.1 2.3 2.3 1.2 0.2 -0.6 2.2 -5.8 6.3 -4.1 3.2 -11.2 9.6 -15.7 14.2 -7.6 7.6 -8.3 8.7 -8.3 12.2 0 4.7 3.5 8.1 8.4 8.1 2.5 0 4 -1.1 7.9 -5.5 6.6 -7.6 26.3 -22.5 29.6 -22.5 1.5 0 11.1 8.8 11.1 10.1 0 0.4 -3.2 2.6 -7.2 5 -3.9 2.4 -11.1 8.1 -15.9 12.6 -4.8 4.6 -9.2 8.3 -9.9 8.3 -0.6 0 -1.8 0.7 -2.6 1.5 -1.4 1.3 -1.4 1.5 0 1.5 0.9 0 1.6 0.5 1.6 1 0 0.6 1.8 2.9 3.9 5 5.7 5.8 7.7 5.4 16.1 -2.9 3.7 -3.8 8.1 -7.5 9.7 -8.3 5.2 -2.6 7.8 -4.3 11.1 -7 1.8 -1.6 4.4 -2.8 5.8 -2.8 2.6 0 11.4 6.6 11.4 8.5 0 0.6 -1.3 2.4 -2.9 3.9 -2.3 2.2 -3.7 2.7 -6.8 2.5 -4.3 -0.3 -8.6 2 -7.9 4.2 0.3 0.8 -1.4 2.9 -3.8 4.9 -9.3 7.6 -11.9 14.1 -7.6 18.8 1.1 1.2 2 2.4 2 2.8 0 0.3 -3.1 4.9 -7 10.1 -6.6 8.9 -8 12.4 -6.2 14.8 1.6 2.3 11.6 9.5 13.1 9.5 1 0 3.1 -1.5 4.7 -3.2z m25.7 0.7 c-1 -1.3 -2.2 -2.5 -2.7 -2.5 -0.5 0 -0.6 0.3 -0.3 0.7 0.4 0.3 0.2 1.2 -0.4 1.9 -0.8 1 -0.6 1.2 1 0.9 1.1 -0.2 2.3 0 2.6 0.6 0.4 0.5 0.8 0.9 1.1 0.9 0.3 0 -0.3 -1.1 -1.3 -2.5z m-69 -1.2 c-0.4 -1.9 3.6 -2.3 4.7 -0.5 0.5 1 1 1.2 1 0.5 0 -1.3 -1.7 -2.6 -3.7 -2.9 -0.6 -0.1 -2.2 -0.9 -3.5 -1.8 -2.1 -1.5 -2.1 -1.6 -0.3 -1.7 1.8 0 1.8 -0.1 -0.3 -1.1 -1.4 -0.7 -2.1 -1.7 -1.7 -2.7 0.4 -1.3 0.2 -1.2 -0.9 0.2 -0.7 0.9 -1.8 1.7 -2.4 1.7 -0.5 0 -1.2 0.7 -1.6 1.5 -0.3 0.8 -0.1 1.5 0.5 1.5 0.5 0 0.4 0.6 -0.3 1.4 -0.7 0.8 -1.6 1.2 -1.9 1 -0.4 -0.2 -0.9 0.7 -1.1 2.1 -0.3 1.3 -0.1 2.2 0.3 1.9 0.5 -0.3 1.6 -0.1 2.5 0.4 2 1.1 9 -0.1 8.7 -1.5z m-21.8 0.8 c-2.8 -0.6 -2.9 -0.7 -1 -1.9 1.6 -0.9 1.7 -1.1 0.4 -1.2 -0.9 0 -1.9 -0.7 -2.3 -1.5 -0.3 -0.8 -1.2 -1.2 -2 -0.9 -1.2 0.5 -1.3 0.9 -0.3 1.9 0.7 0.7 1.6 1 2.1 0.7 0.5 -0.3 0.7 0.2 0.3 1 -0.8 2.1 0.1 2.8 3.2 2.7 2.5 -0.1 2.4 -0.2 -0.4 -0.8z m43 -0.1 c-0.3 -0.5 0.1 -1 1 -1 0.9 0 1.3 -0.4 1 -1 -0.8 -1.2 -10.1 -0.8 -9.8 0.5 0.2 0.5 1.4 1 2.8 1.1 1.4 0 2.8 0.4 3.2 0.7 1 1.1 2.5 0.8 1.8 -0.3z m83 -1.9 c1 -1.7 -0.9 -2 -3 -0.5 -1.8 1.4 -1.8 1.4 0.2 1.4 1.2 0 2.4 -0.4 2.8 -0.9z m85 -2.1 c-0.5 -1.6 -0.2 -2 1.7 -2.1 2.3 -0.1 2.3 -0.1 -0.2 -0.8 -2.7 -0.8 -4.6 0.9 -3.6 3.5 0.8 2.2 2.8 1.7 2.1 -0.6z m18.3 -0.8 c0.2 -0.7 0.7 -1 1.1 -0.8 0.4 0.3 0.8 -0.1 0.8 -0.8 0 -1.1 -0.7 -1.2 -2.8 -0.4 -3.4 1.2 -4.6 3.5 -1.6 3.3 1.1 -0.1 2.3 -0.7 2.5 -1.3z m-143.5 -0.5 c-0.2 -0.4 -0.5 -0.7 -0.8 -0.7 -0.3 0 -1.2 0 -2 0 -0.8 0 -1.5 0.4 -1.5 1 0 0.5 1 0.8 2.3 0.6 1.2 -0.1 2.1 -0.6 2 -0.9z m-54.9 -2.3 c-0.3 -1.6 -0.1 -2.3 0.6 -1.9 0.6 0.3 0.7 0 0.4 -0.9 -0.3 -0.9 -1.1 -1.3 -1.6 -1 -0.6 0.4 -1.4 0 -1.9 -0.7 -0.6 -1 -0.9 -1 -0.9 -0.2 0 0.7 -0.7 1 -1.5 0.7 -0.8 -0.4 -1.5 -0.1 -1.5 0.4 0 0.6 -0.8 1.2 -1.7 1.4 -1.5 0.3 -1.4 0.6 0.6 1.7 1.6 0.9 2.6 1 3 0.3 0.4 -0.7 1.2 -0.8 2.1 -0.2 1.3 0.9 1.3 1 0 1.1 -1.3 0 -0.4 0.7 2.7 1.8 0.1 0.1 0 -1.1 -0.3 -2.5z m8.8 -1 c-0.3 -1.6 0.1 -3 0.9 -3.5 1.2 -0.7 1.2 -0.9 0 -0.9 -0.7 0 -1.1 -0.6 -0.8 -1.4 0.6 -1.5 -2.1 -4.3 -4 -4.2 -0.7 0.1 -1.2 0.3 -1.1 0.6 0.1 0.3 -0.4 1.6 -1.1 3 -1.1 2.2 -1.1 2.3 0.2 0.7 1.2 -1.5 1.6 -1.5 2.6 -0.3 1 1.1 0.9 1.6 -0.4 2.3 -1.9 1.1 -1 4.4 1.1 3.6 0.8 -0.3 1.4 0.1 1.4 1.1 0 0.9 0.4 1.6 0.9 1.6 0.4 0 0.6 -1.2 0.3 -2.6z m172.8 -0.9 c0 -0.8 -0.9 -1.5 -2 -1.5 -2.2 0 -2.7 1.5 -0.7 2.3 2.1 0.9 2.7 0.7 2.7 -0.8z m28.7 -5.2 c0 -0.7 -0.3 -1.3 -0.6 -1.4 -0.3 0 -2.9 -0.2 -5.8 -0.5 -5.4 -0.4 -7.3 0.5 -4.9 2.5 1.1 0.9 1.7 0.8 2.8 -0.2 2 -2.1 3.9 -1 2.8 1.7 -0.8 2.2 -0.8 2.2 2.4 0.7 1.8 -0.9 3.3 -2.2 3.3 -2.8z m-213.5 -4.1 c-0.3 -0.8 -0.7 -1 -1.1 -0.4 -0.3 0.6 -1.7 1.2 -3.1 1.4 l-2.5 0.3 3 1.7 c2.8 1.5 3 1.5 3.6 0 0.3 -1 0.4 -2.3 0.1 -3z m9.8 -3 c-2.5 -0.4 -3.5 0.2 -2.6 1.7 0.5 0.7 1.3 0.7 2.7 -0.2 2 -1.2 2 -1.2 -0.1 -1.5z m174 -25.9 c-2.7 -1 -4.9 -4.5 -3.6 -5.8 0.6 -0.7 1.5 -1.2 2.1 -1 0.5 0.1 0.7 0 0.2 -0.2 -0.4 -0.3 -0.5 -0.9 -0.2 -1.4 0.4 -0.5 0 -0.6 -0.8 -0.3 -0.8 0.3 -1.7 -0.2 -2.1 -1.1 -0.4 -1.3 -1 -1.4 -2.6 -0.5 -1.8 1 -2.2 0.7 -3.1 -2 -1.3 -3.5 -3.1 -3.5 -4 0.1 -0.8 3.1 1.6 5.9 4.9 5.9 2.3 0 2.4 0.1 0.9 1.8 -1.1 1.2 -1.3 2.2 -0.7 3.2 0.7 1 1 1.1 1 0.3 0 -0.7 0.7 -1.3 1.5 -1.3 0.8 0 1.5 0.5 1.5 1.1 0 0.5 0.4 0.8 0.9 0.4 0.5 -0.3 1.2 -0.1 1.6 0.5 0.3 0.5 1.4 1 2.3 0.9 1.4 0 1.4 -0.2 0.2 -0.6z m-208.1 -2.8 c1.8 -0.6 2.3 -0.4 1.9 0.6 -0.4 0.9 0.3 1.4 1.8 1.5 1.2 0.1 2.5 -0.5 2.9 -1.4 0.7 -1.9 0.6 -2 -2.7 -2.4 -1.5 -0.2 -3 -0.7 -3.3 -1 -1.1 -1 -4.6 0.4 -4.1 1.7 0.2 0.7 -0.1 1.9 -0.7 2.6 -1 1 -0.9 1.1 0.3 0.2 0.8 -0.6 2.6 -1.4 3.9 -1.8z m7.5 -7.6 c0.9 -2.2 1.4 -4.4 1.1 -4.9 -0.3 -0.4 0.1 -1 0.7 -1.3 0.8 -0.3 0.1 -0.9 -1.5 -1.6 -2.3 -0.9 -3 -0.8 -4.6 0.8 -1.5 1.5 -1.6 2.1 -0.6 3.5 1.2 1.6 1.3 1.6 1.9 0 0.5 -1.4 0.9 -1.5 1.9 -0.5 0.9 0.9 0.9 1.4 -0.2 2 -0.8 0.5 -1.1 1.6 -0.8 2.4 0.3 0.8 0 2 -0.6 2.6 -0.8 0.8 -0.8 1.1 0 1.1 0.6 0 1.8 -1.8 2.7 -4.1z m7.3 2.1 c-0.1 -1 -0.3 -1.7 -0.6 -1.5 -0.2 0.3 -1.1 -0.1 -1.9 -0.8 -0.9 -0.6 -1.3 -0.7 -1 -0.2 0.2 0.6 0.8 1.8 1.1 2.8 0.9 2.3 2.6 2.2 2.4 -0.3z m194.2 -5.6 c1 0.7 2.7 -1.2 1.8 -2 -0.9 -0.9 -4.4 1.4 -5.1 3.3 -0.6 1.6 -0.5 1.6 0.8 -0.1 0.8 -1 1.9 -1.5 2.5 -1.2z m-17.1 0.5 c-0.2 -0.6 -0.8 -1 -1.3 -1 -0.5 0 -1.1 0.4 -1.3 1 -0.2 0.6 0.4 1.1 1.3 1.1 0.9 0 1.5 -0.5 1.3 -1.1z m-171.6 -3.6 c0.8 -0.7 1.8 -0.9 2.2 -0.5 0.4 0.4 0.7 0.3 0.6 -0.3 -0.5 -2.2 0.1 -2.7 1.7 -1.4 1.5 1.2 1.6 1.2 0.8 -0.1 -0.5 -0.8 -0.9 -2.4 -0.8 -3.5 0.2 -1.1 0 -1.4 -0.3 -0.8 -0.4 0.9 -1.1 1 -2.5 0.3 -1.5 -0.9 -1.9 -0.7 -1.9 0.5 0 1 -0.5 1.3 -1.2 0.9 -0.7 -0.4 -0.8 -0.3 -0.4 0.4 0.4 0.7 1.5 1.2 2.4 1.2 2.5 0 0.1 1.8 -3.2 2.4 -2 0.4 -3.3 0 -4.1 -1 -0.9 -1.3 -1.1 -1.2 -1.1 0.8 0 1.9 0.5 2.3 3.1 2.3 1.8 0 3.9 -0.6 4.7 -1.2z m19.2 -15.1 c-0.2 -4 -0.2 -4 -2.3 -0.7 -1.1 1.9 -1.4 3.2 -0.8 3.7 1.8 1.2 3.3 -0.2 3.1 -3z m-48.4 -16.3 c0 0.6 0.5 1.1 1.1 1.1 0.5 0 0.7 -0.4 0.4 -1 -0.3 -0.5 -0.2 -1 0.3 -1 0.6 0 1.2 -0.6 1.5 -1.2 0.3 -0.9 -0.7 -1.3 -3.2 -1.2 -2 0 -4.6 -0.3 -5.9 -0.8 -1.4 -0.5 -2.1 -0.4 -1.7 0.1 0.3 0.5 0 1.3 -0.7 1.7 -0.8 0.5 0 1.2 2.3 1.9 2.3 0.8 3.8 0.9 4.7 0.2 0.8 -0.6 1.2 -0.6 1.2 0.2z m208.4 -4.7 c0.3 -0.5 0 -0.9 -0.7 -1 -0.7 0 -2.3 -0.4 -3.7 -0.8 -2.2 -0.7 -2.4 -0.6 -1.1 0.9 1.4 1.8 4.6 2.3 5.5 0.9z m-203.4 -2.7 c1 -1.2 1 -1.8 0 -3 -1.1 -1.3 -1.6 -1.3 -4.1 0.1 -1.6 0.8 -3.4 1.2 -3.9 0.9 -0.6 -0.3 -0.7 0.1 -0.4 0.9 0.3 0.9 1 1.3 1.5 1 0.5 -0.3 0.9 -0.1 0.9 0.3 0 1.5 4.7 1.3 6 -0.2z m18.4 -0.9 c-0.3 -0.9 0.3 -2 1.5 -2.8 2.6 -1.6 2.7 -2.8 0.1 -2.1 -3.1 0.8 -4.5 3 -3 4.8 1.6 1.9 2.1 1.9 1.4 0.1z m-10.4 -0.6 c-1.3 -0.9 -1.3 -1 0 -1 1.2 0 1.2 -0.2 0.1 -0.9 -0.9 -0.6 -1 -1.1 -0.2 -1.5 0.6 -0.4 1.5 -0.5 2 -0.2 0.5 0.4 0.8 -0.1 0.7 -1.1 -0.2 -1 -1.4 -1.8 -3 -2 -2.5 -0.4 -2.7 -0.2 -2.5 3.5 0.2 3 0.7 3.8 2.3 4 1.7 0.1 1.8 -0.1 0.6 -0.8z m196 -0.5 c0 -0.8 -0.9 -1.5 -2 -1.5 -2.2 0 -2.7 1.5 -0.7 2.3 2.1 0.9 2.7 0.7 2.7 -0.8z m-183.8 -6.3 c1.1 -1.1 0.9 -1.2 -0.6 -0.6 -1.2 0.5 -1.7 0.4 -1.3 -0.3 0.3 -0.5 -0.3 -0.9 -1.5 -0.9 -1.2 0.1 -2.3 -0.5 -2.6 -1.3 -0.2 -0.8 0 -1.1 0.5 -0.8 0.5 0.3 1.5 0.2 2.2 -0.3 1 -0.6 0.8 -1 -1 -1.5 -1.4 -0.5 -2.5 -0.3 -2.7 0.4 -0.2 0.6 -1 1.1 -1.8 1.1 -1.2 0 -1.3 -0.4 -0.3 -2.2 0.9 -1.9 0.9 -2.1 -0.2 -1 -1.8 1.7 -3 1.5 -2.2 -0.4 0.5 -1.4 0.3 -1.5 -1.5 -0.5 -1.5 0.8 -2.3 0.8 -2.8 0 -1 -1.6 -2.6 0.5 -1.8 2.4 0.5 1.5 0.8 1.5 2.1 0.1 0.9 -0.8 1.8 -1.2 2.2 -0.8 0.3 0.4 0.1 0.9 -0.5 1.1 -0.7 0.2 -0.9 1.3 -0.7 2.4 0.5 1.6 0.8 1.8 1.4 0.7 0.6 -0.9 0.9 -1 0.9 -0.1 0 0.7 0.6 1 1.4 0.7 0.8 -0.3 1.5 0.3 1.8 1.4 0.4 1.4 1.4 1.9 4.1 1.8 2 -0.1 4.2 -0.7 4.9 -1.4z m4.8 -7.2 c1.2 0 1.9 0.4 1.6 0.8 -0.3 0.5 0.1 0.9 0.9 0.9 0.8 0 1.2 -0.4 0.9 -0.9 -0.3 -0.4 -0.1 -0.8 0.5 -0.8 0.6 0 0.8 -0.6 0.5 -1.4 -0.4 -1.2 -1.2 -1.3 -3.1 -0.5 -1.4 0.5 -3.5 0.6 -4.7 0.2 -2.7 -0.9 -6.8 -0.4 -8.1 0.9 -0.7 0.7 -0.4 0.9 1 0.6 1.1 -0.3 2.6 0.1 3.3 0.9 0.9 0.9 1.8 1 3.2 0.3 1 -0.5 2.8 -1 4 -1z m181.4 -5.9 c0.3 -0.5 -0.1 -1.4 -0.9 -2.1 -0.8 -0.7 -1.5 -1 -1.5 -0.7 0 0.3 -0.3 1.2 -0.6 2.1 -0.7 1.7 2 2.3 3 0.7z m-140.4 -22.6 c-1.5 -1.8 -4.3 -2 -3.7 -0.2 0.2 0.6 1.1 1.1 2.1 0.9 0.9 -0.2 1.6 0.3 1.6 0.9 0 0.7 0.3 0.9 0.6 0.6 0.4 -0.4 0.1 -1.3 -0.6 -2.2z m132.8 -11.3 c-0.8 -0.9 -1.4 -0.9 -2.4 -0.1 -1 0.8 -1 1.4 -0.1 2.3 1.6 1.8 4 -0.3 2.5 -2.2z m11.1 2.1 c-0.3 -2.1 0.2 -2.6 1.2 -1.3 0.8 1.2 0.9 1 0.4 -0.7 -0.5 -2 -0.3 -2.2 2.4 -1.8 1.7 0.2 3.1 -0.1 3.1 -0.6 0 -0.5 -0.7 -0.9 -1.5 -0.9 -0.8 0 -1.5 -0.7 -1.5 -1.6 0 -1.3 -0.3 -1.4 -1.4 -0.5 -1.3 1.1 -5.4 2.3 -8.3 2.4 -1.6 0 -1.7 1.7 -0.2 1.7 0.6 0 0.9 0.7 0.5 1.5 -0.3 0.9 0 1.5 1 1.5 1 0 1.4 -0.6 1.1 -1.4 -0.3 -0.8 0.1 -1.7 0.8 -2 1.7 -0.6 3 1 1.5 1.9 -0.6 0.4 -0.8 1.1 -0.5 1.6 0.7 1.1 1.5 1.2 1.4 0.2z m-5.6 -6.6 c0.4 0.3 0.7 0.1 0.7 -0.5 0 -1.6 -4 -2.6 -5.3 -1.3 -1.5 1.5 1.2 3.4 2.9 2.1 0.6 -0.6 1.4 -0.7 1.7 -0.3z"/>
  <path d="M762.1 481.7 c-4.9 -5.1 -5.9 -7.7 -2.7 -7.7 0.7 0 2.7 -0.7 4.5 -1.6 2 -1 7.1 -1.8 14.5 -2.1 l11.4 -0.6 0.4 2.4 c0.4 2.8 3.7 3.8 5 1.5 0.5 -0.9 1.5 -1.6 2.3 -1.6 1.1 0 0.9 1.1 -1 4.4 -1.3 2.4 -2.1 4.7 -1.7 5.1 0.4 0.5 0.2 0.5 -0.5 0.1 -0.6 -0.3 -1.8 0.3 -2.6 1.4 -1.3 1.9 -1.5 1.9 -2.8 0.3 -1.2 -1.4 -1.2 -1.6 0 -0.8 1 0.6 1.2 0.4 0.6 -0.5 -0.5 -0.9 -0.4 -1.1 0.4 -0.6 1.2 0.8 4.1 -1 4.1 -2.4 0 -0.4 -0.7 -1 -1.4 -1.3 -0.9 -0.4 -1.3 -0.1 -1 0.6 0.2 0.7 -0.6 1.7 -1.8 2.2 -1.3 0.6 -2.2 1.6 -2.1 2.2 0.4 2.2 -2.3 3.1 -11.2 3.8 l-9 0.6 -5.4 -5.4z"/>
  <path d="M553.7 336.3 c-0.4 -0.3 -0.7 -3.9 -0.7 -8 0 -6.6 0.2 -7.3 2 -7.3 1.8 0 2 0.7 2 8 0 6 -0.3 8 -1.3 8 -0.8 0 -1.7 -0.3 -2 -0.7z"/>
  <path d="M716.4 331.6 c-0.3 -0.7 -0.4 -3.5 -0.2 -6.2 0.2 -3.7 0.7 -5 2.1 -5.2 1.5 -0.3 1.7 0.5 1.7 6.2 0 5.3 -0.3 6.6 -1.5 6.6 -0.9 0 -1.8 -0.6 -2.1 -1.4z"/>
 </g>
 <g fill="#ffffff">
  <path d="M654 358 c-0.8 -0.6 -3.9 -1.7 -6.8 -2.6 l-5.4 -1.6 2 -2.1 c4.3 -4.7 6.5 -11 7 -19.3 0.4 -7.3 0.1 -8.8 -2.3 -14.3 -3.2 -7.1 -9.4 -13.3 -16.3 -16.3 -6.7 -3 -17 -2.9 -23.7 0.1 l-5 2.2 4 1.4 c2.1 0.8 4.7 2.4 5.7 3.7 4.6 6 1.1 15.7 -6.3 17.2 -5.9 1.1 -12.9 -4.2 -12.9 -9.9 0 -2.4 -1.7 -1.7 -2.9 1.3 -3.3 8.4 -3.5 17.6 -0.5 25.1 0.8 1.9 1.3 3.5 1.2 3.6 -0.6 0.5 -23.7 2.8 -29.2 2.9 l-6 0.1 -1.3 -5 c-1.8 -6.5 -2 -25.9 -0.3 -31 2.4 -7.6 8.2 -17.5 10.4 -17.9 1.1 -0.2 5.8 -0.9 10.4 -1.6 14.1 -1.9 29.3 -8.1 39.1 -15.8 7 -5.7 6.3 -5.5 13.5 -2.8 12.4 4.7 23 14.1 29.2 25.9 5 9.5 6.4 15.4 6.4 27 0 10.2 -1.7 17.2 -6.3 26.3 -1.7 3.4 -2.5 4.1 -3.7 3.4z"/>
  <path d="M722.2 352.1 c-4.7 -10.3 -5.4 -13.5 -5.4 -24.4 0 -8.4 0.4 -11.5 2.6 -18 2.6 -7.8 6.1 -14.2 10 -18.6 3.3 -3.6 12.5 -10.3 18.6 -13.3 8.8 -4.5 10.8 -4.5 20.4 -0.4 11.7 5 23.8 7.6 36.5 7.6 10 0 10.4 0.1 8.7 1.8 -1.5 1.8 -1.5 2 0.3 3.6 2.9 2.7 9.8 16.5 11.6 23.2 1.8 6.8 2 19.2 0.4 26.4 -1 4.6 -1.3 5.1 -3.3 4.5 -1.1 -0.3 -9 -0.9 -17.3 -1.2 l-15.3 -0.6 0.8 -2.6 c0.4 -1.4 0.7 -6.2 0.7 -10.6 -0.1 -6.6 -0.5 -8.9 -2.7 -13.1 -3.2 -6 -9.4 -11.9 -15.7 -14.7 -6.6 -3 -17.8 -2.9 -24.6 0.2 l-5 2.2 4.9 1.7 c8.5 2.9 10.8 11.1 4.9 17.4 -1.4 1.4 -3.6 2.9 -5 3.3 -5.7 1.4 -13.3 -3.9 -13.3 -9.1 0 -6.9 -4.8 2.6 -5.7 11.2 -0.6 6 1.6 14.4 5.2 19.8 1.4 2 2.5 3.9 2.5 4.1 0 0.3 -2.7 1.8 -5.9 3.3 l-6 2.8 -2.9 -6.5z"/>
 </g>
</svg>